<svg width="28" height="20" viewBox="0 0 28 20" fill="none" xmlns="http://www.w3.org/2000/svg">
<path fill-rule="evenodd" clip-rule="evenodd" d="M27.4407 9.25185L19.3948 1.0247C18.9039 0.522555 18.1078 0.522555 17.6168 1.0247C17.1259 1.52687 17.1259 2.34054 17.6168 2.84268L23.5166 8.87536H2.02875C1.33453 8.87536 0.771569 9.45069 0.771569 10.1608C0.771569 10.8705 1.33453 11.4463 2.02875 11.4463H23.5166L17.6171 17.4785C17.1261 17.9807 17.1261 18.7948 17.6171 19.2965C17.8626 19.5478 18.1843 19.673 18.5061 19.673C18.8278 19.673 19.1495 19.5478 19.3951 19.2965L27.4407 11.0698C27.9317 10.5677 27.9317 9.75351 27.4407 9.25185Z" fill="white"/>
</svg>
