<svg width="28" height="20" viewBox="0 0 28 20" fill="none" xmlns="http://www.w3.org/2000/svg">
<path fill-rule="evenodd" clip-rule="evenodd" d="M0.558414 9.25185L8.60427 1.0247C9.09512 0.522555 9.89128 0.522555 10.3822 1.0247C10.8732 1.52687 10.8732 2.34054 10.3822 2.84268L4.48247 8.87536H25.9703C26.6646 8.87536 27.2275 9.45069 27.2275 10.1608C27.2275 10.8705 26.6646 11.4463 25.9703 11.4463H4.48247L10.382 17.4785C10.873 17.9807 10.873 18.7948 10.382 19.2965C10.1365 19.5478 9.81479 19.673 9.49309 19.673C9.17127 19.673 8.84957 19.5478 8.60411 19.2965L0.558414 11.0698C0.0674069 10.5677 0.0674069 9.75351 0.558414 9.25185Z" fill="white"/>
</svg>
