<svg width="11" height="13" viewBox="0 0 11 13" fill="none" xmlns="http://www.w3.org/2000/svg">
<path fill-rule="evenodd" clip-rule="evenodd" d="M9.10516 3.26375L8.28019 2.27378V3.26375H9.10516ZM11 4.06507V9.85165C11 11.0867 9.99879 12.0879 8.76374 12.0879H2.23626C1.00121 12.0879 0 11.0867 0 9.85165V2.23626C0 1.00121 1.00121 0 2.23626 0H7.42105C7.76186 0 8.08506 0.151379 8.30324 0.413195L10.7338 3.32991C10.9058 3.53629 11 3.79643 11 4.06507ZM9.79124 4.47252H8.21981C7.5856 4.47252 7.07146 3.95838 7.07146 3.32417V1.20878H2.2363C1.66884 1.20878 1.20882 1.6688 1.20882 2.23626V9.85164C1.20882 10.4191 1.66884 10.8791 2.2363 10.8791H8.76377C9.33123 10.8791 9.79124 10.4191 9.79124 9.85164V4.47252ZM2.47978 8.21977H8.52028C8.62137 8.21977 8.70333 8.29193 8.70333 8.38095V9.26739C8.70333 9.35641 8.62137 9.42856 8.52028 9.42856H2.47978C2.37868 9.42856 2.29673 9.35641 2.29673 9.26739V8.38095C2.29673 8.29193 2.37868 8.21977 2.47978 8.21977Z" fill="#51A662"/>
</svg>
