<svg width="10" height="16" viewBox="0 0 10 16" fill="none" xmlns="http://www.w3.org/2000/svg">
<path fill-rule="evenodd" clip-rule="evenodd" d="M8.87885 7.68226L0.825849 0.135259C0.633512 -0.0450863 0.334186 -0.0450863 0.141849 0.135259C0.0515581 0.217146 6.29802e-05 0.333366 6.29802e-05 0.455259C6.29802e-05 0.577152 0.0515581 0.693372 0.141849 0.775259L7.85185 8.00126L0.141849 15.2263C0.0515094 15.3083 0 15.4247 0 15.5468C0 15.6688 0.0515094 15.7852 0.141849 15.8673C0.234683 15.9524 0.355914 15.9998 0.481849 16.0003C0.608122 16.0016 0.729993 15.9539 0.821849 15.8673L8.87485 8.31926C8.96522 8.23832 9.0172 8.12296 9.01796 8.00165C9.01872 7.88033 8.9682 7.76433 8.87885 7.68226Z" fill="white"/>
</svg>
