<svg width="125" height="160" viewBox="0 0 125 160" fill="none" xmlns="http://www.w3.org/2000/svg">
<path d="M2.13507 132.741V114.267H13.6516L12.7458 116.722H4.85246V132.806L2.13507 132.741Z" fill="white"/>
<path d="M19.4099 133.064C17.5983 133.064 16.0455 132.418 14.8162 131.127C13.5222 129.835 12.9399 128.22 12.9399 126.217C12.9399 124.215 13.5869 122.6 14.8162 121.308C16.1102 120.016 17.5983 119.37 19.4099 119.37C21.2215 119.37 22.7743 120.016 24.0036 121.308C25.2976 122.6 25.8799 124.215 25.8799 126.217C25.8799 128.22 25.2329 129.835 24.0036 131.127C22.7096 132.418 21.2215 133.064 19.4099 133.064ZM19.4099 130.739C20.5745 130.739 21.4803 130.287 22.192 129.447C22.9037 128.607 23.2919 127.509 23.2919 126.153C23.2919 124.861 22.9037 123.763 22.192 122.923C21.4803 122.083 20.5098 121.631 19.4099 121.631C18.2453 121.631 17.3395 122.083 16.6278 122.923C15.9161 123.763 15.5279 124.861 15.5279 126.153C15.5279 127.445 15.9161 128.543 16.6278 129.447C17.3395 130.351 18.2453 130.739 19.4099 130.739Z" fill="white"/>
<path d="M31.6382 130.739V137.586H29.0502V119.629H31.6382V121.631H31.7029C32.0911 120.985 32.6734 120.404 33.4498 120.016C34.2262 119.564 35.0673 119.37 35.973 119.37C37.7199 119.37 39.208 120.016 40.3726 121.308C41.5372 122.6 42.1195 124.215 42.1195 126.217C42.1195 128.22 41.5372 129.835 40.3726 131.127C39.208 132.418 37.7199 133.064 35.973 133.064C35.0026 133.064 34.1615 132.871 33.4498 132.418C32.6734 131.966 32.0911 131.385 31.6382 130.739ZM31.5735 126.153C31.5735 127.445 31.9617 128.543 32.6734 129.447C33.3851 130.351 34.3556 130.739 35.5202 130.739C36.6847 130.739 37.6552 130.287 38.3669 129.447C39.0786 128.543 39.4668 127.509 39.4668 126.153C39.4668 124.861 39.0786 123.763 38.3669 122.923C37.6552 122.083 36.6847 121.631 35.5202 121.631C34.3556 121.631 33.3851 122.083 32.6734 122.923C31.9617 123.763 31.5735 124.861 31.5735 126.153Z" fill="white"/>
<path d="M51.1129 133.064C49.3013 133.064 47.7485 132.418 46.5192 131.127C45.2252 129.835 44.6429 128.22 44.6429 126.217C44.6429 124.215 45.2899 122.6 46.5192 121.308C47.8132 120.016 49.3013 119.37 51.1129 119.37C52.9245 119.37 54.4773 120.016 55.7065 121.308C57.0005 122.6 57.5828 124.215 57.5828 126.217C57.5828 128.22 56.9358 129.835 55.7065 131.127C54.4773 132.418 52.9245 133.064 51.1129 133.064ZM51.1129 130.739C52.2775 130.739 53.1833 130.287 53.895 129.447C54.6067 128.607 54.9949 127.509 54.9949 126.153C54.9949 124.861 54.6067 123.763 53.895 122.923C53.1833 122.083 52.2128 121.631 51.1129 121.631C49.9483 121.631 49.0425 122.083 48.3308 122.923C47.6191 123.763 47.2309 124.861 47.2309 126.153C47.2309 127.445 47.6191 128.543 48.3308 129.447C49.0425 130.351 49.9483 130.739 51.1129 130.739Z" fill="white"/>
<path d="M59.1356 135.713V130.545H60.1061C60.559 130.222 60.8825 129.705 61.1413 128.995C61.4001 128.284 61.5942 127.38 61.7236 126.346C61.9824 124.344 62.1765 122.148 62.3706 119.629H71.0404V130.545H72.7873V135.713H70.4581V132.677H61.5295V135.713H59.1356ZM62.9529 130.545L68.4524 130.61V121.825H64.5704C64.5057 122.406 64.441 123.181 64.3763 124.021C64.3116 124.861 64.1822 125.765 64.1175 126.734C64.0528 127.574 63.8587 128.284 63.6646 128.93C63.4705 129.512 63.2117 130.093 62.9529 130.545Z" fill="white"/>
<path d="M80.616 133.064C78.8044 133.064 77.2516 132.418 76.0223 131.127C74.793 129.835 74.146 128.22 74.146 126.217C74.146 124.215 74.793 122.6 76.0223 121.308C77.2516 120.016 78.8044 119.37 80.616 119.37C81.6512 119.37 82.4923 119.564 83.3334 119.887C84.1098 120.275 84.7568 120.662 85.2744 121.179L83.6569 122.794C83.3334 122.535 82.9452 122.277 82.4923 122.019C81.9747 121.76 81.3924 121.631 80.7454 121.631C79.5808 121.631 78.6103 122.083 77.8986 122.923C77.1869 123.827 76.7987 124.861 76.7987 126.153C76.7987 127.445 77.1869 128.543 77.8986 129.447C78.6103 130.351 79.5808 130.739 80.7454 130.739C81.4571 130.739 82.0394 130.61 82.4923 130.351C83.0099 130.093 83.3981 129.835 83.6569 129.576L85.2744 131.191C84.7568 131.708 84.1098 132.095 83.3334 132.483C82.557 132.871 81.6512 133.064 80.616 133.064Z" fill="white"/>
<path d="M87.927 132.741V119.693H90.515V124.99H92.6501L96.2086 119.693H99.1201L94.9146 125.83L99.8965 132.806H96.6615L92.7795 127.186H90.4503V132.806L87.927 132.741Z" fill="white"/>
<path d="M105.655 133.064C104.361 133.064 103.261 132.677 102.355 131.837C101.514 130.997 101.061 130.028 101.061 128.866C101.061 127.768 101.514 126.799 102.42 125.959C103.326 125.055 104.749 124.667 106.819 124.667C107.208 124.667 107.596 124.667 108.113 124.732C108.631 124.796 109.084 124.861 109.472 124.925V124.215C109.472 123.375 109.213 122.794 108.696 122.342C108.178 121.89 107.466 121.696 106.69 121.696C106.043 121.696 105.396 121.825 104.749 122.083C104.102 122.342 103.649 122.6 103.261 122.858L101.643 121.244C102.29 120.727 103.067 120.275 103.908 119.952C104.814 119.629 105.719 119.435 106.755 119.435C108.372 119.435 109.666 119.887 110.637 120.727C111.607 121.631 112.06 122.794 112.06 124.344V132.806H109.537V131.385H109.472C109.084 131.902 108.566 132.354 107.855 132.677C107.208 132.871 106.496 133.064 105.655 133.064ZM106.172 130.868C107.078 130.868 107.855 130.545 108.502 129.964C109.149 129.382 109.472 128.543 109.472 127.445V126.799C109.084 126.734 108.696 126.669 108.243 126.669C107.79 126.605 107.466 126.605 107.143 126.605C106.043 126.605 105.137 126.799 104.555 127.186C103.973 127.574 103.649 128.091 103.649 128.801C103.649 129.318 103.843 129.835 104.296 130.222C104.749 130.674 105.396 130.868 106.172 130.868Z" fill="white"/>
<path d="M114.454 132.741L118.142 127.703V127.638C117.301 127.38 116.654 126.928 116.201 126.217C115.683 125.571 115.489 124.732 115.489 123.892C115.489 122.6 115.942 121.631 116.848 120.856C117.754 120.081 118.854 119.693 120.083 119.693H125V132.741H122.412V128.026H120.794L117.495 132.741H114.454ZM120.471 125.894H122.347V121.825H120.471C119.824 121.825 119.242 122.019 118.789 122.342C118.336 122.665 118.077 123.181 118.077 123.892C118.077 124.603 118.336 125.119 118.789 125.442C119.242 125.701 119.824 125.894 120.471 125.894Z" fill="white"/>
<path d="M0 160V153.734H1.294C1.81159 153.476 2.26449 152.959 2.52329 152.249C2.78209 151.538 3.04089 150.569 3.23499 149.407C3.36439 148.761 3.42909 147.727 3.55849 146.435C3.68789 145.143 3.75259 143.787 3.88199 142.495C3.94669 141.203 4.07609 139.588 4.20549 137.651H16.2396V153.734H18.3747V160H15.8514V156.189H2.58799V160H0ZM4.39959 153.734L13.5223 153.799V140.105H6.59938C6.59938 140.622 6.53468 141.332 6.46998 142.172C6.40528 143.012 6.34058 143.916 6.27588 144.885C6.21118 145.789 6.14648 146.694 6.08178 147.598C6.01708 148.502 5.88768 149.213 5.82298 149.73C5.69358 150.569 5.49948 151.344 5.30538 152.055C5.04658 152.636 4.78778 153.218 4.39959 153.734Z" fill="white"/>
<path d="M21.545 156.189V143.141H24.133V152.055H24.1977L30.2795 143.141H32.6087V156.189H30.0207V147.275H29.956L23.8742 156.189H21.545Z" fill="white"/>
<path d="M36.426 156.189V143.141H39.014V148.373H44.6428V143.141H47.2308V156.189H44.6428V150.505H39.014V156.189H36.426Z" fill="white"/>
<path d="M54.8654 156.512C53.5714 156.512 52.4715 156.124 51.5657 155.285C50.7246 154.445 50.2717 153.476 50.2717 152.313C50.2717 151.215 50.7246 150.246 51.6304 149.407C52.5362 148.502 53.9596 148.115 56.03 148.115C56.4182 148.115 56.8064 148.115 57.324 148.179C57.8416 148.244 58.2945 148.308 58.6827 148.373V147.663C58.6827 146.823 58.4239 146.241 57.9063 145.789C57.3887 145.337 56.677 145.143 55.9006 145.143C55.2536 145.143 54.6066 145.273 53.9596 145.531C53.3126 145.789 52.8597 146.048 52.4715 146.306L50.854 144.691C51.501 144.174 52.2774 143.722 53.1185 143.399C54.0243 143.076 54.9301 142.883 55.9653 142.883C57.5828 142.883 58.8768 143.335 59.8473 144.174C60.8178 145.079 61.2707 146.241 61.2707 147.792V156.254H58.7474V154.833H58.6827C58.2945 155.349 57.7769 155.801 57.0652 156.124C56.4182 156.318 55.7065 156.512 54.8654 156.512ZM55.383 154.316C56.2888 154.316 57.0652 153.993 57.7122 153.411C58.3592 152.83 58.6827 151.99 58.6827 150.892V150.246C58.2945 150.182 57.9063 150.117 57.4534 150.117C57.0005 150.053 56.677 150.053 56.3535 150.053C55.2536 150.053 54.3478 150.246 53.7655 150.634C53.1832 151.021 52.8597 151.538 52.8597 152.249C52.8597 152.765 53.0538 153.282 53.5067 153.67C53.9596 154.122 54.5419 154.316 55.383 154.316Z" fill="white"/>
<path d="M64.5057 156.189L67.7407 143.141H69.8111L73.4343 152.83H73.499L77.1869 143.141H79.2573L82.4923 156.189H79.7749L77.7692 147.727H77.7045L74.4695 156.189H72.2697L69.0347 147.792H68.97L67.029 156.189H64.5057Z" fill="white"/>
<path d="M85.7919 156.189V143.141H88.3799V152.055H88.4446L94.5264 143.141H96.8556V156.189H94.2676V147.275H94.2029L88.1211 156.189H85.7919Z" fill="white"/>
<path d="M100.738 156.189V143.141H103.326V148.438H105.461L109.019 143.141H111.931L107.725 149.277L112.707 156.254H109.472L105.59 150.634H103.261V156.254L100.738 156.189Z" fill="white"/>
<path d="M118.465 156.512C117.171 156.512 116.071 156.124 115.166 155.285C114.325 154.445 113.872 153.476 113.872 152.313C113.872 151.215 114.325 150.246 115.23 149.407C116.136 148.502 117.56 148.115 119.63 148.115C120.018 148.115 120.406 148.115 120.924 148.179C121.442 148.244 121.894 148.308 122.283 148.373V147.663C122.283 146.823 122.024 146.241 121.506 145.789C120.989 145.337 120.277 145.143 119.501 145.143C118.854 145.143 118.207 145.273 117.56 145.531C116.913 145.789 116.46 146.048 116.071 146.306L114.454 144.691C115.101 144.174 115.877 143.722 116.718 143.399C117.624 143.076 118.53 142.883 119.565 142.883C121.183 142.883 122.477 143.335 123.447 144.174C124.418 145.079 124.871 146.241 124.871 147.792V156.254H122.347V154.833H122.283C121.894 155.349 121.377 155.801 120.665 156.124C120.018 156.318 119.306 156.512 118.465 156.512ZM118.983 154.316C119.889 154.316 120.665 153.993 121.312 153.411C121.959 152.83 122.283 151.99 122.283 150.892V150.246C121.894 150.182 121.506 150.117 121.053 150.117C120.6 150.053 120.277 150.053 119.953 150.053C118.854 150.053 117.948 150.246 117.365 150.634C116.783 151.021 116.46 151.538 116.46 152.249C116.46 152.765 116.654 153.282 117.107 153.67C117.56 154.122 118.142 154.316 118.983 154.316Z" fill="white"/>
<path d="M42.1843 33.5245V95.7934C42.1843 96.5039 41.602 97.0853 40.955 97.0853H35.5202C34.8085 97.0853 34.2909 96.5039 34.2909 95.7934V44.8931C34.2909 44.4409 34.4203 43.9888 34.6144 43.5366C36.6201 39.9839 38.6258 36.4958 40.6315 33.0077C41.0197 32.2326 42.1843 32.5556 42.1843 33.5245Z" fill="white"/>
<path d="M51.8245 17.6343V95.7934C51.8245 96.5039 51.2422 97.0852 50.5952 97.0852H45.1604C44.4488 97.0852 43.9312 96.5039 43.9312 95.7934V28.4861C43.9312 27.711 44.1253 26.9359 44.5135 26.2899C46.2603 23.254 48.0719 20.1535 49.8835 17.0529C50.4011 16.084 51.8245 16.4716 51.8245 17.6343Z" fill="white"/>
<path d="M61.5295 1.29192V95.4058C61.5295 96.3101 60.8178 97.0852 59.912 97.0852H55.1889C54.2831 97.0852 53.5714 96.3101 53.5714 95.4058V12.2084C53.5714 11.2394 53.8302 10.3351 54.2831 9.55999C56.03 6.58865 57.8416 3.55272 59.6532 0.452195C59.9767 -0.129153 60.8825 -0.193747 61.2707 0.387601C61.4001 0.645978 61.5295 0.96895 61.5295 1.29192Z" fill="white"/>
<path d="M65.088 31.3928L70.911 41.082C71.1051 41.405 71.2345 41.7925 71.2345 42.1801V95.7287C71.2345 96.4393 70.6522 97.0206 70.0052 97.0206H64.5704C63.8587 97.0206 63.3411 96.4393 63.3411 95.7287V32.5555C63.3411 31.9096 63.7293 31.3283 64.2469 31.0053C64.5057 30.9407 64.8939 31.0699 65.088 31.3928Z" fill="white"/>
<path d="M74.4694 47.1538L80.6806 57.5535C80.81 57.7472 80.8747 58.0056 80.8747 58.264V95.8579C80.8747 96.5684 80.2924 97.1497 79.6454 97.1497H74.2106C73.4989 97.1497 72.9813 96.5684 72.9813 95.8579V48.1873C72.9813 47.7997 73.1107 47.4122 73.3695 47.0892C73.5636 46.637 74.2106 46.7016 74.4694 47.1538Z" fill="white"/>
<path d="M84.1744 63.4316L90.2562 73.6375C90.4503 73.9605 90.515 74.2835 90.515 74.6065V95.7934C90.515 96.5039 89.9327 97.0853 89.2857 97.0853H83.8509C83.1392 97.0853 82.6216 96.5039 82.6216 95.7934V64.4652C82.6216 64.013 82.8157 63.5608 83.0745 63.2379C83.3333 62.9149 83.9156 62.9795 84.1744 63.4316Z" fill="white"/>
</svg>
