<svg width="63" height="63" viewBox="0 0 63 63" fill="none" xmlns="http://www.w3.org/2000/svg">
<path fill-rule="evenodd" clip-rule="evenodd" d="M31.5 0C14.103 0 0 14.103 0 31.5C0 48.897 14.103 63 31.5 63C48.897 63 63 48.897 63 31.5C62.9806 14.1111 48.8889 0.0194429 31.5 0ZM31.5 60.5764C19.7394 60.5764 9.13681 53.4919 4.63628 42.6265C0.135743 31.7611 2.62356 19.2545 10.9397 10.9386C19.2558 2.62267 31.7624 0.135118 42.6277 4.63589C53.493 9.13666 60.5773 19.7394 60.577 31.5C60.5579 47.5507 47.5507 60.5574 31.5 60.5758V60.5764Z" fill="#FC7753"/>
<path d="M22.1305 36.9598L24.134 38.9397L30.1444 33L24.134 27.0603L22.1305 29.0402L26.1374 33L22.1305 36.9598Z" fill="#FC805E"/>
<path d="M36.25 35.8H30.5833V38.6H36.25V35.8Z" fill="#FC805E"/>
<path fill-rule="evenodd" clip-rule="evenodd" d="M17.8333 19C16.2685 19 15 20.2536 15 21.8V44.2C15 45.7464 16.2685 47 17.8333 47H46.1667C47.7315 47 49 45.7464 49 44.2V21.8C49 20.2536 47.7315 19 46.1667 19H17.8333ZM46.1667 21.8H17.8333L17.8333 44.2H46.1667V21.8Z" fill="#FC805E"/>
</svg>
