<svg width="63" height="63" viewBox="0 0 63 63" fill="none" xmlns="http://www.w3.org/2000/svg">
<path fill-rule="evenodd" clip-rule="evenodd" d="M31.5 0C14.103 0 0 14.103 0 31.5C0 48.897 14.103 63 31.5 63C48.897 63 63 48.897 63 31.5C62.9806 14.1111 48.8889 0.0194429 31.5 0ZM31.5 60.5764C19.7394 60.5764 9.13681 53.4919 4.63628 42.6265C0.135743 31.7611 2.62356 19.2545 10.9397 10.9386C19.2558 2.62267 31.7624 0.135118 42.6277 4.63589C53.493 9.13666 60.5773 19.7394 60.577 31.5C60.5579 47.5507 47.5507 60.5574 31.5 60.5758V60.5764Z" fill="#FC7753"/>
<path fill-rule="evenodd" clip-rule="evenodd" d="M38.75 22.2632H43.1C44.7016 22.2632 46 23.5356 46 25.1053V42.1579C46 43.7275 44.7016 45 43.1 45H19.9C18.2984 45 17 43.7275 17 42.1579V25.1053C17 23.5356 18.2984 22.2632 19.9 22.2632H24.25C24.25 19.9087 26.1976 18 28.6 18H34.4C36.8024 18 38.75 19.9087 38.75 22.2632ZM34.4 20.8421H28.6C27.7992 20.8421 27.15 21.4783 27.15 22.2632H35.85C35.85 21.4783 35.2008 20.8421 34.4 20.8421ZM43.1 25.1053H19.9V27.9474H43.1V25.1053ZM19.9 42.1579V30.7895H24.25V33.6316H30.05V30.7895H32.95V33.6316H38.75V30.7895H43.1V42.1579H19.9Z" fill="#FC7753"/>
</svg>
