<svg width="63" height="63" viewBox="0 0 63 63" fill="none" xmlns="http://www.w3.org/2000/svg">
<path fill-rule="evenodd" clip-rule="evenodd" d="M31.5 0C14.103 0 0 14.103 0 31.5C0 48.897 14.103 63 31.5 63C48.897 63 63 48.897 63 31.5C62.9806 14.1111 48.8889 0.0194429 31.5 0ZM31.5 60.5764C19.7394 60.5764 9.13681 53.4919 4.63628 42.6265C0.135743 31.7611 2.62356 19.2545 10.9397 10.9386C19.2558 2.62267 31.7624 0.135118 42.6277 4.63589C53.493 9.13666 60.5773 19.7394 60.577 31.5C60.5579 47.5507 47.5507 60.5574 31.5 60.5758V60.5764Z" fill="#FC7753"/>
<path fill-rule="evenodd" clip-rule="evenodd" d="M42.8021 18.3775C42.2993 17.8742 41.4841 17.8742 40.9812 18.3775L39.8581 19.5017C38.4223 18.8152 36.6506 19.0671 35.4614 20.2575L21.8052 33.9269L29.0885 41.2173L42.7447 27.5478C43.9339 26.3575 44.1856 24.5841 43.4997 23.1469L44.6229 22.0227C45.1257 21.5194 45.1257 20.7034 44.6229 20.2001L42.8021 18.3775ZM37.307 29.3457L29.0885 37.5721L25.4469 33.9269L33.6653 25.7005L37.307 29.3457ZM39.648 27.0024L40.9239 25.7253C41.4267 25.222 41.4267 24.406 40.9239 23.9027L39.1031 22.0801C38.6003 21.5768 37.7851 21.5768 37.2823 22.0801L36.0064 23.3572L39.648 27.0024Z" fill="#FC7753"/>
<path d="M18 45L20.7317 34.9752L28.0145 42.2661L18 45Z" fill="#FC7753"/>
</svg>
