<svg width="63" height="63" viewBox="0 0 63 63" fill="none" xmlns="http://www.w3.org/2000/svg">
<path fill-rule="evenodd" clip-rule="evenodd" d="M31.5 0C14.103 0 0 14.103 0 31.5C0 48.897 14.103 63 31.5 63C48.897 63 63 48.897 63 31.5C62.9806 14.1111 48.8889 0.0194429 31.5 0ZM31.5 60.5764C19.7394 60.5764 9.13681 53.4919 4.63628 42.6265C0.135743 31.7611 2.62356 19.2545 10.9397 10.9386C19.2558 2.62267 31.7624 0.135118 42.6277 4.63589C53.493 9.13666 60.5773 19.7394 60.577 31.5C60.5579 47.5507 47.5507 60.5574 31.5 60.5758V60.5764Z" fill="#FC7753"/>
<path d="M17.0716 37.0182C14.275 37.0182 12 39.2932 12 42.0897C12 44.8862 14.275 47.1613 17.0716 47.1613C19.8682 47.1613 22.1431 44.8863 22.1431 42.0897C22.1431 39.2931 19.8681 37.0182 17.0716 37.0182ZM17.0716 44.6255C15.6731 44.6255 14.5358 43.4882 14.5358 42.0897C14.5358 40.6913 15.6731 39.554 17.0716 39.554C18.47 39.554 19.6073 40.6913 19.6073 42.0897C19.6073 43.4882 18.47 44.6255 17.0716 44.6255Z" fill="#FC7753"/>
<path d="M25.5241 22.6489C22.7276 22.6489 20.4525 24.9239 20.4525 27.7205C20.4525 30.5171 22.7275 32.792 25.5241 32.792C28.3207 32.792 30.5956 30.5171 30.5956 27.7205C30.5956 24.9239 28.3206 22.6489 25.5241 22.6489ZM25.5241 30.2561C24.1256 30.2561 22.9883 29.1188 22.9883 27.7204C22.9883 26.3219 24.1256 25.1846 25.5241 25.1846C26.9225 25.1846 28.0598 26.3219 28.0598 27.7204C28.0598 29.1188 26.9225 30.2561 25.5241 30.2561Z" fill="#FC7753"/>
<path d="M38.2029 34.9051C35.4063 34.9051 33.1313 37.1801 33.1313 39.9767C33.1313 42.7732 35.4063 45.0482 38.2029 45.0482C40.9994 45.0482 43.2744 42.7733 43.2744 39.9767C43.2744 37.1801 40.9994 34.9051 38.2029 34.9051ZM38.2029 42.5123C36.8044 42.5123 35.6671 41.375 35.6671 39.9766C35.6671 38.5781 36.8044 37.4408 38.2029 37.4408C39.6013 37.4408 40.7386 38.5781 40.7386 39.9766C40.7387 41.375 39.6014 42.5123 38.2029 42.5123Z" fill="#FC7753"/>
<path d="M46.2328 18C43.4362 18 41.1612 20.275 41.1612 23.0716C41.1612 25.8682 43.4362 28.1431 46.2328 28.1431C49.0294 28.1431 51.3043 25.868 51.3043 23.0715C51.3043 20.275 49.0294 18 46.2328 18ZM46.2328 25.6072C44.8343 25.6072 43.697 24.4699 43.697 23.0715C43.697 21.673 44.8343 20.5357 46.2328 20.5357C47.6312 20.5357 48.7685 21.673 48.7685 23.0715C48.7685 24.4699 47.6313 25.6072 46.2328 25.6072Z" fill="#FC7753"/>
<path d="M22.7806 30.3978L17.7089 38.0057L19.819 39.4124L24.8907 31.8044L22.7806 30.3978Z" fill="#FC7753"/>
<path d="M28.8696 29.7051L27.2462 31.653L34.8534 37.9926L36.4767 36.0447L28.8696 29.7051Z" fill="#FC7753"/>
<path d="M43.5097 25.8192L38.3521 35.5803L40.5939 36.7649L45.7516 27.0037L43.5097 25.8192Z" fill="#FC7753"/>
</svg>
