<svg width="18" height="15" viewBox="0 0 18 15" fill="none" xmlns="http://www.w3.org/2000/svg">
<path fill-rule="evenodd" clip-rule="evenodd" d="M16.557 4.45626C15.814 3.16848 14.7447 2.09924 13.457 1.35626C10.8139 -0.164976 7.56105 -0.164976 4.91797 1.35626C3.6302 2.09924 2.56096 3.16848 1.81797 4.45626C0.297329 7.09913 0.297329 10.3514 1.81797 12.9943C2.56134 14.2817 3.63049 15.3509 4.91797 16.0943C7.56138 17.6143 10.8136 17.6143 13.457 16.0943C14.7447 15.3513 15.814 14.282 16.557 12.9943C18.0782 10.3515 18.0782 7.09897 16.557 4.45626ZM9.19197 1.45626C10.9641 1.43269 12.6793 2.0816 13.992 3.27226L13.853 3.46626C13.7248 3.6247 13.5862 3.77437 13.438 3.91426C13.2109 4.14109 12.9687 4.35224 12.713 4.54626C12.3715 4.79576 12.0144 5.02322 11.644 5.22726C11.1818 5.48736 10.7004 5.71169 10.204 5.89826C9.41 4.41769 8.49911 3.00286 7.47997 1.66726C8.03913 1.53101 8.61246 1.46153 9.18797 1.46026L9.19197 1.45626ZM3.49997 4.21326C4.19123 3.33424 5.07854 2.62912 6.09097 2.15426C7.08161 3.489 7.98355 4.88734 8.79097 6.34026C6.60122 6.92385 4.34516 7.22165 2.07897 7.22626C2.31083 6.12594 2.79753 5.09534 3.49997 4.21726V4.21326ZM2.41397 11.3403C2.08894 10.5055 1.92374 9.61706 1.92697 8.72126C1.92575 8.64377 1.92942 8.56628 1.93797 8.48926C4.4595 8.51016 6.9706 8.16318 9.39197 7.45926C9.62797 7.91592 9.82364 8.32559 9.97897 8.68826C9.93223 8.70835 9.88411 8.72506 9.83497 8.73826L9.69097 8.77626L9.28097 8.92026C8.90231 9.07124 8.53473 9.24867 8.18097 9.45126C7.72697 9.70326 7.24497 10.0013 6.73597 10.3513C6.16234 10.7534 5.63304 11.2153 5.15697 11.7293C4.62712 12.2853 4.16798 12.9046 3.78997 13.5733C3.2002 12.9196 2.73397 12.1644 2.41397 11.3443V11.3403ZM9.19197 15.9853C7.50084 15.9979 5.86024 15.4092 4.56297 14.3243L4.72897 14.4463C5.01405 13.8394 5.39984 13.2853 5.86997 12.8073C6.30997 12.3371 6.79608 11.9123 7.32097 11.5393C7.80754 11.2058 8.31416 10.9025 8.83797 10.6313C9.38397 10.3473 9.75697 10.1666 9.95697 10.0893C10.157 10.0119 10.3156 9.95059 10.433 9.90526L10.455 9.89426H10.477C11.1693 11.6787 11.6886 13.5255 12.028 15.4093C11.1299 15.7914 10.164 15.9886 9.18797 15.9893L9.19197 15.9853ZM15.306 12.6463C14.7731 13.4785 14.0758 14.1931 13.257 14.7463C12.9351 12.9776 12.4606 11.2401 11.839 9.55326C13.3542 9.32682 14.9008 9.43641 16.369 9.87426C16.2127 10.8638 15.8506 11.8095 15.306 12.6503V12.6463ZM16.347 8.62126C16.273 8.60626 16.181 8.59026 16.07 8.57226L15.67 8.50526C15.511 8.48026 15.334 8.45526 15.138 8.43326C14.942 8.41126 14.738 8.39026 14.512 8.37226C14.286 8.35426 14.054 8.33926 13.804 8.32726C13.554 8.31526 13.298 8.31126 13.039 8.31126C12.78 8.31126 12.509 8.31926 12.225 8.33426C11.941 8.34926 11.666 8.37426 11.4 8.41126C11.3677 8.35244 11.34 8.29126 11.317 8.22826C11.284 8.14326 11.26 8.07926 11.246 8.03426C11.1053 7.72426 10.9426 7.37359 10.758 6.98226C11.2598 6.77884 11.7467 6.54024 12.215 6.26826C12.5979 6.05038 12.9676 5.80996 13.322 5.54826C13.5967 5.34034 13.8592 5.11663 14.108 4.87826C14.2775 4.72287 14.4385 4.55829 14.59 4.38526C14.664 4.29326 14.734 4.20326 14.801 4.11426L14.812 4.10426C15.8755 5.37796 16.4593 6.98393 16.462 8.64326L16.347 8.62126Z" fill="white"/>
</svg>
