<svg width="20" height="14" viewBox="0 0 20 14" fill="none" xmlns="http://www.w3.org/2000/svg">
<path fill-rule="evenodd" clip-rule="evenodd" d="M15.3181 6.88237H8.15714V9.21537H12.5261C11.8023 11.7508 9.2652 13.3164 6.67442 12.8265C4.08364 12.3366 2.29344 9.95257 2.54542 7.32794C2.7974 4.7033 5.00847 2.70345 7.64514 2.71537C9.00569 2.71131 10.3128 3.24465 11.2821 4.19937L13.0141 2.35837C11.5688 0.976806 9.64455 0.208749 7.64514 0.215375C3.50301 0.215375 0.145142 3.57324 0.145142 7.71537C0.145142 11.8575 3.50301 15.2154 7.64514 15.2154C11.2897 15.2514 14.4744 12.7611 15.3181 9.21537V6.88237ZM19.9681 6.88237H18.5031V5.45037H17.2481V6.88237H15.7831V8.10937H17.2481V9.54137H18.5031V8.10537H19.9681V6.87837V6.88237Z" fill="white"/>
</svg>
