<svg width="17" height="15" viewBox="0 0 17 15" fill="none" xmlns="http://www.w3.org/2000/svg">
<path fill-rule="evenodd" clip-rule="evenodd" d="M16.332 8.75544C16.2173 8.40101 15.9654 8.10727 15.6327 7.93985C15.2999 7.77242 14.9139 7.74527 14.561 7.86444L13.076 8.37044L12.07 5.33944L13.516 4.84544C14.2544 4.58953 14.6472 3.7851 14.395 3.04544C14.2803 2.69099 14.0285 2.39719 13.6957 2.22961C13.363 2.06202 12.9771 2.03459 12.624 2.15344L11.178 2.64744L10.691 1.18044C10.5765 0.825824 10.3247 0.531851 9.99193 0.364228C9.65913 0.196605 9.27305 0.169309 8.91997 0.288441C8.18276 0.545676 7.79052 1.3489 8.04097 2.08844L8.52797 3.55644L5.47597 4.59744L4.99497 3.14844C4.88029 2.79375 4.62833 2.49977 4.29536 2.33216C3.9624 2.16455 3.57618 2.13728 3.22297 2.25644C2.48576 2.51368 2.09352 3.3169 2.34397 4.05644L2.82497 5.50644L1.36997 6.00644C0.632761 6.26368 0.24052 7.0669 0.49097 7.80644C0.605407 8.16104 0.85723 8.45495 1.19008 8.62241C1.52294 8.78987 1.90903 8.8169 2.26197 8.69744L3.71697 8.19744L4.72297 11.2214L3.30697 11.7044C2.56976 11.9617 2.17752 12.7649 2.42797 13.5044C2.54266 13.8589 2.79447 14.1527 3.12719 14.3203C3.45992 14.4879 3.84589 14.5153 4.19897 14.3964L5.61497 13.9124L6.13197 15.4694C6.24664 15.8239 6.4985 16.1176 6.83127 16.285C7.16405 16.4525 7.55003 16.4796 7.90297 16.3604C8.64018 16.1032 9.03242 15.3 8.78197 14.5604L8.26597 13.0054L11.318 11.9634L11.829 13.5014C11.9437 13.8559 12.1955 14.1497 12.5282 14.3173C12.8609 14.4849 13.2469 14.5123 13.6 14.3934C14.3376 14.1366 14.73 13.333 14.479 12.5934L13.969 11.0554L15.453 10.5484C16.1869 10.2916 16.5785 9.49291 16.332 8.75544ZM7.37397 10.3214L6.36797 7.29044L9.41997 6.24844L10.426 9.27944L7.37397 10.3214Z" fill="white"/>
</svg>
