<svg width="17" height="14" viewBox="0 0 17 14" fill="none" xmlns="http://www.w3.org/2000/svg">
<path fill-rule="evenodd" clip-rule="evenodd" d="M16.6049 1.80433C16.0173 2.07713 15.3908 2.25694 14.7479 2.33733C15.4313 1.90342 15.936 1.23832 16.1699 0.463332C15.5396 0.856633 14.8445 1.13495 14.1169 1.28533C13.5199 0.608217 12.6617 0.218802 11.7589 0.215332C9.93138 0.259547 8.48502 1.77572 8.52694 3.60333C8.52629 3.86265 8.55446 4.12124 8.61094 4.37433C5.98093 4.22169 3.54824 2.92976 1.94894 0.836332C1.66099 1.35658 1.51057 1.94171 1.51194 2.53633C1.50325 3.65419 2.03986 4.70614 2.94994 5.35533C2.43421 5.33744 1.93107 5.19138 1.48594 4.93033V4.97333C1.45936 6.55304 2.53918 7.93697 4.07794 8.29533C3.60291 8.43114 3.10224 8.45103 2.61794 8.35333C3.00924 9.70805 4.22765 10.6573 5.63694 10.7053C4.50865 11.6407 3.08954 12.1535 1.62394 12.1553C1.36618 12.1555 1.10867 12.1395 0.852936 12.1073C2.31508 13.0983 4.04061 13.6284 5.80694 13.6293C11.7509 13.6293 15.0009 8.46833 15.0009 3.99333C15.0009 3.84533 15.0009 3.70033 14.9919 3.55533C15.6288 3.07154 16.1749 2.47871 16.6049 1.80433Z" fill="white"/>
</svg>
