<svg width="20" height="15" viewBox="0 0 20 15" fill="none" xmlns="http://www.w3.org/2000/svg">
<path fill-rule="evenodd" clip-rule="evenodd" d="M15.266 6.66704H8.10502V9.00004H12.474C11.7502 11.5354 9.21308 13.1011 6.6223 12.6112C4.03151 12.1212 2.24132 9.73724 2.49329 7.1126C2.74527 4.48797 4.95634 2.48812 7.59302 2.50004C8.95357 2.49597 10.2607 3.02932 11.23 3.98404L12.962 2.14304C11.5167 0.761474 9.59243 -0.00658284 7.59302 4.25093e-05C3.45088 4.25093e-05 0.0930176 3.35791 0.0930176 7.50004C0.0930176 11.6422 3.45088 15 7.59302 15C11.2376 15.036 14.4222 12.5458 15.266 9.00004V6.66704ZM19.916 6.66704H18.451V5.23504H17.196V6.66704H15.731V7.89404H17.196V9.32604H18.451V7.89004H19.916V6.66304V6.66704Z" fill="#333333"/>
</svg>
