<svg width="19" height="18" viewBox="0 0 19 18" fill="none" xmlns="http://www.w3.org/2000/svg">
<path fill-rule="evenodd" clip-rule="evenodd" d="M13.3953 0H5.33028C2.58862 0.00275511 0.366588 2.22433 0.363281 4.966V13.032C0.365486 15.7744 2.58784 17.9972 5.33028 18H13.3953C16.1379 17.9972 18.3605 15.7746 18.3633 13.032V4.966C18.3594 2.22417 16.1371 0.002754 13.3953 0ZM16.7663 13.033C16.7641 14.8934 15.2567 16.4012 13.3963 16.404H5.33028C3.46983 16.4012 1.96248 14.8934 1.96028 13.033V4.967C1.96249 3.10671 3.47 1.5992 5.33028 1.597H13.3953C15.256 1.59865 16.7641 3.10632 16.7663 4.967V13.033ZM9.36628 4.362C7.49011 4.36079 5.79801 5.49003 5.07919 7.22303C4.36037 8.95604 4.75644 10.9514 6.08266 12.2785C7.40888 13.6056 9.404 14.0029 11.1375 13.2852C12.8709 12.5675 14.0013 10.8762 14.0013 9C13.9991 6.43926 11.924 4.36376 9.36328 4.361L9.36628 4.362ZM9.36628 12.041C8.13622 12.041 7.0273 11.3 6.55667 10.1635C6.08604 9.02704 6.3464 7.71898 7.21632 6.84933C8.08625 5.97969 9.3944 5.71977 10.5307 6.19077C11.667 6.66177 12.4077 7.77094 12.4073 9.001C12.4045 10.6802 11.0425 12.04 9.36328 12.04L9.36628 12.041ZM14.1993 3.009C13.6417 3.00985 13.1623 3.40438 13.0542 3.95139C12.9462 4.49839 13.2394 5.0456 13.7548 5.25846C14.2701 5.47132 14.8641 5.29059 15.1735 4.82674C15.483 4.3629 15.4217 3.74509 15.0273 3.351C14.8065 3.13131 14.5077 3.00798 14.1963 3.008L14.1993 3.009Z" fill="#333333"/>
</svg>
