<svg width="18" height="18" viewBox="0 0 18 18" fill="none" xmlns="http://www.w3.org/2000/svg">

    <path fill-rule="evenodd" clip-rule="evenodd" d="M16.5047 4.24092C15.7617 2.95315 14.6925 1.88391 13.4047 1.14092C10.7617 -0.380308 7.5088 -0.380308 4.86573 1.14092C3.57795 1.88391 2.50872 2.95315 1.76573 4.24092C0.245083 6.8838 0.245083 10.136 1.76573 12.7789C2.50909 14.0664 3.57824 15.1356 4.86573 15.8789C7.50913 17.3989 10.7613 17.3989 13.4047 15.8789C14.6925 15.1359 15.7617 14.0667 16.5047 12.7789C18.026 10.1362 18.026 6.88364 16.5047 4.24092ZM9.13973 1.24092C10.9118 1.21736 12.627 1.86627 13.9397 3.05692L13.8007 3.25092C13.6726 3.40936 13.5339 3.55903 13.3857 3.69892C13.1586 3.92576 12.9164 4.13691 12.6607 4.33092C12.3192 4.58043 11.9622 4.80789 11.5917 5.01192C11.1296 5.27203 10.6482 5.49635 10.1517 5.68292C9.35776 4.20235 8.44687 2.78753 7.42773 1.45192C7.98688 1.31568 8.56021 1.2462 9.13573 1.24492L9.13973 1.24092ZM3.44773 3.99792C4.13899 3.1189 5.02629 2.41378 6.03873 1.93892C7.02937 3.27366 7.93131 4.67201 8.73873 6.12492C6.54897 6.70852 4.29291 7.00632 2.02673 7.01092C2.25858 5.9106 2.74528 4.88001 3.44773 4.00192V3.99792ZM2.36173 11.1249C2.03669 10.2902 1.87149 9.40173 1.87473 8.50592C1.8735 8.42844 1.87718 8.35095 1.88573 8.27392C4.40726 8.29483 6.91835 7.94784 9.33973 7.24392C9.57573 7.70059 9.77139 8.11026 9.92673 8.47292C9.87999 8.49302 9.83186 8.50973 9.78273 8.52292L9.63873 8.56092L9.22873 8.70492C8.85006 8.8559 8.48248 9.03334 8.12873 9.23592C7.67473 9.48792 7.19273 9.78592 6.68373 10.1359C6.11009 10.5381 5.58079 11 5.10473 11.5139C4.57487 12.07 4.11573 12.6893 3.73773 13.3579C3.14795 12.7043 2.68173 11.9491 2.36173 11.1289V11.1249ZM9.13973 15.7699C7.4486 15.7826 5.80799 15.1939 4.51073 14.1089L4.67673 14.2309C4.9618 13.6241 5.34759 13.0699 5.81773 12.5919C6.25773 12.1217 6.74383 11.697 7.26873 11.3239C7.75529 10.9904 8.26192 10.6872 8.78573 10.4159C9.33173 10.1319 9.70473 9.95126 9.90473 9.87392C10.1047 9.79659 10.2634 9.73526 10.3807 9.68992L10.4027 9.67892H10.4247C11.117 11.4634 11.6364 13.3102 11.9757 15.1939C11.0776 15.576 10.1117 15.7733 9.13573 15.7739L9.13973 15.7699ZM15.2537 12.4309C14.7208 13.2631 14.0236 13.9777 13.2047 14.5309C12.8828 12.7622 12.4084 11.0248 11.7867 9.33792C13.302 9.11149 14.8485 9.22108 16.3167 9.65892C16.1605 10.6484 15.7984 11.5941 15.2537 12.4349V12.4309ZM16.2947 8.40592C16.2207 8.39092 16.1287 8.37492 16.0177 8.35692L15.6177 8.28992C15.4587 8.26492 15.2817 8.23992 15.0857 8.21792C14.8897 8.19592 14.6857 8.17492 14.4597 8.15692C14.2337 8.13892 14.0017 8.12392 13.7517 8.11192C13.5017 8.09992 13.2457 8.09592 12.9867 8.09592C12.7277 8.09592 12.4567 8.10392 12.1727 8.11892C11.8887 8.13392 11.6137 8.15892 11.3477 8.19592C11.3155 8.1371 11.2877 8.07593 11.2647 8.01292C11.2317 7.92792 11.2077 7.86392 11.1937 7.81892C11.0531 7.50892 10.8904 7.15826 10.7057 6.76692C11.2076 6.5635 11.6945 6.32491 12.1627 6.05292C12.5457 5.83505 12.9153 5.59463 13.2697 5.33292C13.5445 5.125 13.8069 4.90129 14.0557 4.66292C14.2253 4.50754 14.3862 4.34296 14.5377 4.16992C14.6117 4.07792 14.6817 3.98792 14.7487 3.89892L14.7597 3.88892C15.8232 5.16263 16.407 6.7686 16.4097 8.42792L16.2947 8.40592Z" fill="#333333"/>
</svg>
