<svg width="34" height="27" viewBox="0 0 34 27" fill="none" xmlns="http://www.w3.org/2000/svg">
<path fill-rule="evenodd" clip-rule="evenodd" d="M1.01797 14.021H32.986C33.2621 14.021 33.486 13.7971 33.486 13.521C33.486 13.2448 33.2621 13.021 32.986 13.021H1.01797C0.741827 13.021 0.517969 13.2448 0.517969 13.521C0.517969 13.7971 0.741827 14.021 1.01797 14.021ZM13.687 26.5C13.8205 26.5 13.9487 26.4476 14.044 26.354C14.1373 26.2614 14.1898 26.1354 14.1898 26.004C14.1898 25.8725 14.1373 25.7465 14.044 25.654L1.73197 13.522L14.044 1.39397C14.1386 1.30108 14.1919 1.17406 14.1919 1.04147C14.1919 0.908879 14.1386 0.781857 14.044 0.688967C13.8454 0.495116 13.5285 0.495116 13.33 0.688967L0.660969 13.169C0.56636 13.2619 0.513062 13.3889 0.513062 13.5215C0.513062 13.6541 0.56636 13.7811 0.660969 13.874L13.33 26.357C13.4251 26.4503 13.5537 26.5018 13.687 26.5Z" fill="#0081C3"/>
</svg>
