<svg width="34" height="27" viewBox="0 0 34 27" fill="none" xmlns="http://www.w3.org/2000/svg">
<path fill-rule="evenodd" clip-rule="evenodd" d="M32.982 14.0211H1.01398C0.737835 14.0211 0.513977 13.7972 0.513977 13.5211C0.513977 13.2449 0.737835 13.0211 1.01398 13.0211H32.982C33.2581 13.0211 33.482 13.2449 33.482 13.5211C33.482 13.7972 33.2581 14.0211 32.982 14.0211ZM20.313 26.5001C20.1791 26.5002 20.0506 26.4477 19.955 26.3541C19.8617 26.2615 19.8092 26.1355 19.8092 26.0041C19.8092 25.8726 19.8617 25.7466 19.955 25.6541L32.268 13.5221L19.955 1.39406C19.8604 1.30117 19.8071 1.17415 19.8071 1.04156C19.8071 0.90897 19.8604 0.781948 19.955 0.689058C20.1538 0.495086 20.4711 0.495086 20.67 0.689058L33.339 13.1691C33.4336 13.2619 33.4869 13.389 33.4869 13.5216C33.4869 13.6541 33.4336 13.7812 33.339 13.8741L20.67 26.3571C20.5748 26.4504 20.4463 26.5019 20.313 26.5001Z" fill="#0081C3"/>
</svg>
