<svg width="99" height="81" viewBox="0 0 99 81" fill="none" xmlns="http://www.w3.org/2000/svg">
<path opacity="0.32" fill-rule="evenodd" clip-rule="evenodd" d="M96.924 47.7802C91.667 66.4602 78.701 80.0202 66.095 80.0202C65.0864 80.0191 64.0798 79.9322 63.086 79.7602C62.5309 79.6603 62.0424 79.3343 61.737 78.8602C61.4354 78.3842 61.3504 77.8025 61.503 77.2602L64.097 68.0402C64.3581 67.1538 65.1866 66.5571 66.11 66.5902H66.316C70.991 66.5902 79.534 59.6302 83.889 44.1602C84.062 43.5502 84.225 42.9202 84.382 42.2702C79.4046 44.6862 73.7199 45.2156 68.382 43.7602C56.5299 40.423 49.6273 28.1097 52.9645 16.2577C56.3017 4.40564 68.6149 -2.49701 80.467 0.840166C88.325 3.02017 94.232 9.50017 97.102 19.0802C99.689 27.7202 99.625 38.1902 96.924 47.7802ZM14.136 80.0102C13.128 80.0125 12.1217 79.9288 11.128 79.7602C10.5729 79.6603 10.0843 79.3343 9.77898 78.8602C9.4784 78.3839 9.39339 77.8026 9.54498 77.2602L12.145 68.0402C12.4018 67.1508 13.233 66.552 14.158 66.5902H14.358C19.032 66.5902 27.577 59.6302 31.932 44.1602C32.1053 43.5502 32.2693 42.9202 32.424 42.2702C27.4466 44.6864 21.7619 45.2158 16.424 43.7602C4.64151 40.3666 -2.18928 28.0954 1.13421 16.293C4.4577 4.49056 16.688 -2.41308 28.51 0.840166C36.366 3.02017 42.273 9.50016 45.144 19.0802C47.734 27.7202 47.67 38.1902 44.969 47.7802C39.709 66.4602 26.742 80.0102 14.136 80.0102Z" fill="#C4C4C4"/>
</svg>
