<svg width="240" height="160" viewBox="0 0 240 160" fill="none" xmlns="http://www.w3.org/2000/svg">
<path d="M121.955 90.3198C114.713 90.2557 108.945 89.1021 103.37 86.9873C102.729 86.731 102.088 86.4747 101.447 86.2824C98.3712 85.1289 97.7944 83.4626 99.012 80.4506C100.486 76.7977 101.64 73.0167 102.921 69.2997C103.562 67.4413 104.075 65.5828 104.78 63.7243C105.228 62.4426 106.254 61.8017 107.599 61.8017C110.227 61.8658 112.854 61.9299 115.482 62.0581C115.674 62.0581 115.995 62.5708 115.931 62.8271C114.585 67.5694 113.239 72.3758 111.893 77.1182C111.701 77.8231 111.829 78.1435 112.534 78.3999C118.43 80.2584 124.262 79.9379 130.029 77.8872C137.271 75.2597 143.295 70.966 147.717 64.6856C153.356 56.739 155.407 47.8311 153.1 38.3465C150.537 27.7724 144.513 19.6335 134.708 14.6348C127.85 11.1101 120.609 10.3411 113.047 11.9433C103.818 13.9299 96.5768 18.8645 91.3858 26.6829C88.3738 31.2971 86.7076 36.4239 85.9386 41.8071C85.6182 44.1782 84.721 44.9473 82.3498 44.9473C80.3631 44.9473 78.3765 45.0114 76.3898 44.8832C76.0694 44.8832 75.6208 44.2423 75.5567 43.9219C75.1722 39.5 75.749 35.2704 77.223 31.1048C79.6582 24.1195 83.3111 17.9673 88.7583 12.9045C94.0133 7.96996 100.037 4.38118 106.959 2.26636C109.458 1.49733 112.085 0.984643 114.649 0.536045C116.507 0.215618 118.366 0.0874547 120.224 0.0233693C124.198 -0.168887 127.979 0.85648 131.76 1.94593C137.72 3.67624 143.167 6.43191 147.973 10.4052C154.382 15.6602 159.124 22.1969 161.944 30.0154C164.764 37.8979 165.148 45.9726 163.738 54.1756C161.431 67.5054 153.741 77.0541 142.526 84.1035C138.168 86.8591 133.426 88.7176 128.363 89.6789C125.864 90.0634 123.236 90.1916 121.955 90.3198Z" fill="white"/>
<path d="M99.2043 47.5749C105.805 47.5749 112.406 47.5749 118.943 47.5749C120.032 47.5749 120.417 47.8312 120.032 48.9207C119.263 51.4841 118.558 54.0475 117.725 56.5468C117.084 58.4694 115.29 58.7898 113.559 58.9821C111.573 59.1743 109.522 59.3666 107.535 59.4948C103.69 59.687 101.575 61.93 100.422 65.3265C98.4353 71.0942 96.4486 76.7978 94.462 82.5655C94.3979 82.7578 93.6929 83.0141 93.6289 82.95C91.6422 80.7711 89.7196 78.5922 87.7971 76.3492C85.7463 73.8499 85.8104 71.0942 86.8999 68.2745C87.8612 65.7751 88.9506 63.2758 89.9119 60.8405C90.4887 59.3666 90.3605 59.1743 88.7584 59.1743C84.7851 59.1743 80.8118 59.1743 76.8385 59.1102C76.3899 59.1102 75.5567 58.6616 75.5567 58.3412C75.2363 55.5855 74.9159 52.8299 74.9159 50.0101C74.9159 49.3693 76.0054 48.3439 76.7744 48.2157C78.9533 47.8312 81.2604 47.703 83.5034 47.6389C88.7584 47.5108 94.0134 47.5749 99.2043 47.5749Z" fill="white"/>
<path d="M203.535 146.459C203.535 142.806 203.535 139.089 203.535 135.436C203.535 134.667 203.728 134.347 204.561 134.347C205.971 134.411 207.38 134.411 208.79 134.347C209.495 134.347 209.88 134.603 209.752 135.372C209.688 135.692 209.688 136.077 209.752 136.461C209.752 136.654 209.88 136.91 210.008 136.974C210.136 137.038 210.392 136.91 210.521 136.782C213.02 134.347 215.968 133.449 219.364 133.962C221.415 134.218 223.017 135.308 223.979 137.23C224.363 137.999 224.684 138.064 225.26 137.359C227.888 134.218 232.438 133.001 236.283 134.475C237.757 135.052 238.782 136.077 239.231 137.551C239.615 138.833 239.872 140.178 239.936 141.524C240 146.971 239.936 152.419 240 157.866C240 158.635 239.744 158.763 239.039 158.763C237.565 158.699 236.091 158.699 234.617 158.763C233.912 158.763 233.656 158.507 233.656 157.802C233.72 153.188 233.656 148.574 233.656 144.023C233.656 142.357 233.463 140.691 231.797 139.858C230.067 139.025 228.272 139.409 226.67 140.435C225.388 141.268 224.684 142.357 224.748 144.088C224.876 148.638 224.748 153.252 224.812 157.802C224.812 158.571 224.555 158.827 223.85 158.763C222.441 158.699 220.967 158.699 219.493 158.763C218.724 158.763 218.531 158.507 218.531 157.738C218.531 153.124 218.531 148.509 218.531 143.959C218.531 142.293 218.339 140.627 216.673 139.858C215.007 139.025 213.276 139.409 211.738 140.435C210.392 141.332 209.623 142.357 209.688 144.152C209.816 148.702 209.752 153.316 209.688 157.866C209.688 158.186 209.175 158.699 208.854 158.763C207.38 158.827 205.842 158.827 204.368 158.763C204.048 158.763 203.535 158.186 203.535 157.866C203.535 153.957 203.535 150.24 203.535 146.459Z" fill="white"/>
<path d="M26.3391 159.404C20.8278 159.148 16.2777 157.994 12.4326 154.726C11.7918 154.213 11.7277 153.764 12.2403 153.124C13.1375 151.97 13.9707 150.752 14.8038 149.535C15.2524 148.894 15.5728 148.766 16.2136 149.342C19.5461 152.355 23.4553 153.572 27.8772 152.995C28.9026 152.867 29.992 152.354 30.8251 151.714C32.8118 150.176 32.2991 147.548 29.7357 146.651C27.749 145.946 25.6342 145.433 23.5835 144.857C20.8919 144.152 18.1362 143.447 15.8932 141.652C11.2791 137.999 11.8558 130.437 16.9186 127.041C20.7637 124.477 24.9934 124.285 29.2871 124.99C32.3632 125.439 35.1189 126.656 37.5541 128.579C38.1309 129.027 38.259 129.412 37.7464 130.053C36.8492 131.206 35.952 132.36 35.1189 133.577C34.6062 134.282 34.2217 134.218 33.6449 133.77C30.4406 131.334 26.8518 130.373 22.8785 131.014C21.3405 131.27 20.0588 132.424 19.8665 133.834C19.6743 135.372 20.6996 136.141 21.8532 136.654C22.6863 137.038 23.5194 137.23 24.4166 137.551C27.5568 138.512 30.8251 139.217 33.7731 140.499C38.7717 142.678 39.9893 147.099 38.5154 152.162C37.2978 156.2 34.1576 158.122 30.2484 158.891C28.7103 159.019 27.2363 159.276 26.3391 159.404Z" fill="white"/>
<path d="M185.848 133.834C193.346 133.834 198.729 139.089 198.601 146.523C198.537 153.764 193.666 159.34 185.656 159.276C178.35 159.212 173.159 153.957 173.159 146.394C173.159 138.961 178.35 133.834 185.848 133.834ZM179.439 146.459C179.696 147.548 179.888 148.702 180.208 149.727C181.426 153.38 186.104 154.854 189.244 152.611C191.68 150.88 192.769 147.356 191.872 144.023C190.718 139.858 186.36 137.935 182.708 140.114C180.401 141.524 179.631 143.831 179.439 146.459Z" fill="white"/>
<path d="M135.797 148.381C133.234 148.381 130.606 148.381 128.043 148.381C126.889 148.381 126.569 148.83 126.953 149.919C127.85 152.162 129.517 153.636 131.888 154.085C134.579 154.598 137.143 154.021 139.386 152.419C139.963 151.97 140.347 152.098 140.732 152.675C141.244 153.444 141.757 154.277 142.334 155.046C142.782 155.623 142.782 156.2 142.077 156.52C140.475 157.289 138.937 158.122 137.271 158.635C135.925 159.084 134.387 159.276 132.977 159.276C127.274 159.276 122.531 156.072 120.865 151.009C118.238 142.934 123.108 134.026 132.08 133.834C138.553 133.642 143.295 137.551 144.32 143.959C144.513 145.049 144.577 146.138 144.705 147.228C144.833 148.125 144.449 148.509 143.487 148.509C140.988 148.381 138.425 148.381 135.797 148.381ZM132.785 144.344C134.387 144.344 135.989 144.28 137.591 144.344C138.617 144.408 138.809 143.895 138.617 142.998C137.912 140.307 135.541 138.64 132.593 138.64C129.773 138.704 127.466 140.499 126.825 143.19C126.633 144.024 126.953 144.28 127.722 144.28C129.389 144.28 131.055 144.344 132.785 144.344Z" fill="white"/>
<path d="M95.231 148.381C92.6676 148.381 90.0401 148.445 87.4766 148.381C86.259 148.381 86.0668 148.958 86.4513 149.855C87.4126 152.29 89.1429 153.764 91.7704 154.149C94.3979 154.533 96.8331 153.957 99.0761 152.418C99.3325 152.29 99.9733 152.418 100.23 152.675C100.806 153.316 101.127 154.085 101.704 154.726C102.473 155.623 102.216 156.264 101.319 156.776C97.9867 158.763 94.3338 159.788 90.5527 159.147C82.9907 157.802 78.6969 152.098 79.9786 144.087C80.6836 139.73 83.0547 136.461 87.1562 134.731C93.2443 132.167 100.935 134.282 103.306 141.588C103.883 143.382 104.011 145.369 104.331 147.228C104.459 148.061 104.139 148.381 103.306 148.317C100.55 148.381 97.9226 148.381 95.231 148.381ZM92.1549 144.344C93.757 144.344 95.3592 144.28 96.9613 144.344C97.9867 144.408 98.243 143.959 98.0507 142.998C97.4099 140.37 94.9746 138.64 92.0267 138.704C89.207 138.768 86.8358 140.627 86.259 143.254C86.0668 144.087 86.3872 144.344 87.1562 144.344C88.8224 144.28 90.4887 144.344 92.1549 144.344Z" fill="white"/>
<path d="M71.7757 145.113C71.7757 149.278 71.7757 153.508 71.7757 157.673C71.7757 158.378 71.5193 158.635 70.8144 158.635C69.0841 158.635 67.3538 158.699 65.6876 158.571C65.3671 158.571 64.7904 157.994 64.7904 157.673C64.7263 149.342 64.7263 141.075 64.7904 132.744C64.7904 131.462 64.3418 131.078 63.1241 131.142C60.8171 131.206 58.4459 131.142 56.0747 131.206C55.2416 131.206 54.9212 130.886 54.9212 130.053C54.9853 128.771 54.8571 127.425 54.9853 126.143C54.9853 125.759 55.5621 125.182 55.8825 125.182C64.0854 125.118 72.3524 125.118 80.5554 125.182C80.8758 125.182 81.4526 125.759 81.4526 126.143C81.5808 127.425 81.4526 128.707 81.5167 129.989C81.5808 130.886 81.1962 131.27 80.299 131.27C77.9279 131.206 75.5567 131.27 73.1856 131.206C72.0961 131.206 71.7116 131.527 71.7757 132.616C71.7757 136.717 71.7757 140.947 71.7757 145.113Z" fill="white"/>
<path d="M161.047 133.834C164.123 133.77 167.071 134.731 169.442 137.102C170.083 137.743 170.211 138.256 169.442 138.897C168.545 139.666 167.712 140.563 166.814 141.332C166.622 141.524 165.981 141.524 165.853 141.396C163.802 138.897 160.214 139.025 158.419 139.858C155.471 141.268 153.997 144.152 154.446 147.356C155.023 151.65 157.843 154.085 162.008 153.572C163.29 153.38 164.443 152.354 165.661 151.778C165.981 151.585 166.622 151.585 166.879 151.778C167.84 152.547 168.801 153.444 169.634 154.341C169.891 154.597 169.891 155.367 169.698 155.623C168.288 157.289 166.558 158.379 164.443 158.763C162.905 159.019 161.303 159.404 159.829 159.276C154.702 158.827 149.832 155.943 148.486 149.855C147.333 144.728 148.422 140.178 152.523 136.654C154.574 134.731 157.458 133.834 161.047 133.834Z" fill="white"/>
<path d="M0.0640845 141.909C0.0640845 136.654 0.0640845 131.335 0.0640845 126.08C0.0640845 125.246 0.320425 125.054 1.08945 125.054C2.75567 125.118 4.4219 124.99 6.08812 125.118C6.40855 125.118 6.98532 125.695 6.98532 126.015C7.0494 136.59 7.0494 147.164 6.98532 157.802C6.98532 158.058 6.47263 158.571 6.1522 158.635C4.4219 158.699 2.69159 158.635 0.897197 158.699C0.256343 158.699 0 158.507 0 157.802C0.128171 152.483 0.0640845 147.228 0.0640845 141.909Z" fill="white"/>
<path d="M109.073 141.844C109.073 136.589 109.073 131.399 109.073 126.144C109.073 125.31 109.33 124.99 110.163 125.054C111.573 125.118 112.919 124.99 114.328 125.118C114.649 125.118 115.226 125.695 115.29 126.015C115.354 136.589 115.354 147.164 115.29 157.802C115.29 158.058 114.777 158.571 114.457 158.635C112.983 158.699 111.509 158.635 110.035 158.699C109.33 158.699 109.073 158.443 109.138 157.738C109.073 152.419 109.073 147.099 109.073 141.844Z" fill="white"/>
</svg>
