<svg width="176" height="214" viewBox="0 0 176 214" fill="none" xmlns="http://www.w3.org/2000/svg">
<path d="M92.3517 140.191C90.9987 135.12 90.5303 129.897 90.9186 124.617C80.1294 124.526 68.9453 127.224 60.093 130.925C43.5092 137.727 29.6461 149.591 20.1397 164.512C19.0298 166.154 16.6272 165.752 17.1295 164.033C17.1853 163.842 17.269 163.556 17.4493 163.298C30.1889 143.422 50.6649 128.334 74.0959 123.254C78.6992 122.234 84.8077 121.453 91.2318 121.389C93.2084 106.723 101.111 92.2593 109.804 81.5585C126.385 61.4743 149.989 48.9749 173.531 38.8435C176.063 37.7273 175.445 41.2793 173.66 41.9947C151.653 51.5442 129.406 62.9938 113.589 81.541C104.149 92.6425 96.648 106.81 94.9614 121.563C108.568 122.074 122.453 126.3 124.777 139.546C126.122 147.52 120.783 154.651 112.808 155.707C102.678 156.954 94.8945 149.455 92.3517 140.191ZM112.445 152.279C116.991 152.176 119.968 149.532 121.001 145.999C121.587 143.994 121.525 141.693 120.73 139.382C119.278 135.008 116.124 131.789 112.027 129.638C106.758 126.829 100.877 125.394 94.6202 124.885C94.4894 127.129 94.4831 129.307 94.67 131.541C95.4844 141.329 100.909 152.589 112.445 152.279Z" fill="url(#paint0_linear_228_433)"/>
<path d="M9.66592 177.214C8.97161 169.556 8.0289 162.032 6.86562 154.546C6.82492 154.327 6.85276 154.232 6.88059 154.137C7.27025 152.804 10.825 152.824 11.0136 154.329C12.1104 160.967 12.9867 167.644 13.6424 174.358C21.1222 170.266 28.8761 166.669 36.8078 163.539C38.4631 162.892 41.6132 164.655 39.02 165.645C30.1226 169.213 21.5956 173.304 13.2186 177.958C12.4456 178.453 9.85446 178.718 9.66592 177.214Z" fill="url(#paint1_linear_228_433)"/>
<defs>
<linearGradient id="paint0_linear_228_433" x1="102.876" y1="16.03" x2="52.7124" y2="174.227" gradientUnits="userSpaceOnUse">
<stop stop-color="#B08228"/>
<stop offset="0.0773688" stop-color="#C7AD7D"/>
<stop offset="0.122494" stop-color="#E7DEA4"/>
<stop offset="0.349427" stop-color="#AB8027"/>
<stop offset="0.637802" stop-color="#E7DEA4"/>
<stop offset="0.915052" stop-color="#AB8027"/>
<stop offset="1" stop-color="#D9C170"/>
</linearGradient>
<linearGradient id="paint1_linear_228_433" x1="19.0306" y1="155.823" x2="12.097" y2="178.442" gradientUnits="userSpaceOnUse">
<stop stop-color="#B08228"/>
<stop offset="0.0773688" stop-color="#C7AD7D"/>
<stop offset="0.122494" stop-color="#E7DEA4"/>
<stop offset="0.349427" stop-color="#AB8027"/>
<stop offset="0.637802" stop-color="#E7DEA4"/>
<stop offset="0.915052" stop-color="#AB8027"/>
<stop offset="1" stop-color="#D9C170"/>
</linearGradient>
</defs>
</svg>
