<svg width="103" height="131" viewBox="0 0 103 131" fill="none" xmlns="http://www.w3.org/2000/svg">
<path d="M62.5454 84.9659C60.3872 82.1368 58.7441 78.9835 57.6233 75.5733C50.8368 78.3041 44.5232 82.8846 39.9306 87.4917C31.2924 96.0397 25.6676 107.058 23.5635 118.867C23.292 120.183 21.682 120.552 21.5529 119.344C21.5386 119.21 21.517 119.009 21.5635 118.801C24.4142 103.051 33.3511 88.303 46.7261 79.0652C49.3482 77.2366 52.9755 75.1692 56.9858 73.4693C54.4357 63.7653 55.6526 52.6574 58.3371 43.704C63.5417 26.8308 75.1086 12.8974 87.2483 0.464532C88.5467 -0.889119 89.0769 1.49707 88.1433 2.40648C76.8155 14.078 65.828 27.0028 60.7053 42.715C57.6561 52.1127 56.6144 62.9314 59.3684 72.6145C68.0295 69.42 77.8254 68.4818 82.7041 76.1841C85.6071 80.835 84.1024 86.6843 79.3768 89.4069C73.3491 92.8055 66.5326 90.1157 62.5454 84.9659ZM78.2636 87.3517C81.0861 86.1127 82.2697 83.6862 82.0043 81.205C81.8536 79.7968 81.2199 78.3703 80.1248 77.1269C78.0847 74.7602 75.2758 73.5571 72.1522 73.2677C68.1235 72.8679 64.0664 73.4879 60.013 74.7855C60.5108 76.2259 61.0693 77.5922 61.7638 78.9446C64.803 84.8697 71.1123 90.5268 78.2636 87.3517Z" fill="url(#paint0_linear_228_436)"/>
<path d="M20.2796 129.535C17.8661 124.914 15.3314 120.442 12.6682 116.05C12.5861 115.923 12.5789 115.856 12.5718 115.789C12.4716 114.853 14.7052 113.947 15.2121 114.842C17.6147 118.72 19.8888 122.678 22.0345 126.718C25.6659 122.22 29.5971 117.962 33.7603 113.951C34.6308 113.118 37.0609 113.409 35.691 114.699C31.0355 119.234 26.7476 124.002 22.6989 129.083C22.3422 129.593 20.7866 130.429 20.2796 129.535Z" fill="url(#paint1_linear_228_436)"/>
<defs>
<linearGradient id="paint0_linear_228_436" x1="37.065" y1="4.4182" x2="46.4911" y2="116.541" gradientUnits="userSpaceOnUse">
<stop stop-color="#B08228"/>
<stop offset="0.0773688" stop-color="#C7AD7D"/>
<stop offset="0.122494" stop-color="#E7DEA4"/>
<stop offset="0.349427" stop-color="#AB8027"/>
<stop offset="0.637802" stop-color="#E7DEA4"/>
<stop offset="0.915052" stop-color="#AB8027"/>
<stop offset="1" stop-color="#D9C170"/>
</linearGradient>
<linearGradient id="paint1_linear_228_436" x1="20.6234" y1="113.707" x2="22.1209" y2="129.677" gradientUnits="userSpaceOnUse">
<stop stop-color="#B08228"/>
<stop offset="0.0773688" stop-color="#C7AD7D"/>
<stop offset="0.122494" stop-color="#E7DEA4"/>
<stop offset="0.349427" stop-color="#AB8027"/>
<stop offset="0.637802" stop-color="#E7DEA4"/>
<stop offset="0.915052" stop-color="#AB8027"/>
<stop offset="1" stop-color="#D9C170"/>
</linearGradient>
</defs>
</svg>
