<svg width="466" height="446" viewBox="0 0 466 446" fill="none" xmlns="http://www.w3.org/2000/svg">
<g clip-path="url(#clip0_228_408)">
<path fill-rule="evenodd" clip-rule="evenodd" d="M377.453 1.026C335.113 -5.99084 285.988 23.0178 251.206 63.493C235.146 82.3187 222.177 103.54 214.362 124.676C178.635 92.4161 137.926 69.0552 109.499 63.8353C31.7752 49.6305 7.64218 106.193 1.63039 138.539C-20.3556 258.253 180.524 432.134 249.23 444.627C304.883 453.955 439.718 303.52 463.422 162.157C473.299 104.139 456.723 14.2895 377.453 1.026Z" fill="#A7E2E2"/>
<path fill-rule="evenodd" clip-rule="evenodd" d="M372.645 34.0226C334.771 27.6903 290.885 53.6184 259.795 89.8151C245.453 106.673 233.859 125.584 226.902 144.495C195.04 115.572 158.626 94.6926 133.204 90.0718C63.811 77.4072 42.1685 127.894 36.8438 156.817C17.1766 263.781 196.672 419.179 258.078 430.389C307.804 438.689 428.297 304.342 449.511 177.953C458.271 126.097 443.499 45.8314 372.645 34.0226Z" fill="#F2FDFA"/>
</g>
<defs>
<clipPath id="clip0_228_408">
<rect width="466" height="445.056" fill="white"/>
</clipPath>
</defs>
</svg>
