<svg width="28" height="20" viewBox="0 0 28 20" fill="none" xmlns="http://www.w3.org/2000/svg">
<path fill-rule="evenodd" clip-rule="evenodd" d="M0.463143 9.25185L8.50342 1.0247C8.99393 0.522555 9.78954 0.522555 10.2801 1.0247C10.7707 1.52687 10.7707 2.34054 10.2801 2.84268L4.38448 8.87536H25.8575C26.5513 8.87536 27.1138 9.45069 27.1138 10.1608C27.1138 10.8705 26.5513 11.4463 25.8575 11.4463H4.38448L10.2799 17.4785C10.7706 17.9807 10.7706 18.7948 10.2799 19.2965C10.0346 19.5478 9.7131 19.673 9.39163 19.673C9.07003 19.673 8.74855 19.5478 8.50326 19.2965L0.463143 11.0698C-0.0275241 10.5677 -0.0275241 9.75351 0.463143 9.25185Z" fill="white"/>
</svg>
