<svg width="28" height="20" viewBox="0 0 28 20" fill="none" xmlns="http://www.w3.org/2000/svg">
<path fill-rule="evenodd" clip-rule="evenodd" d="M27.5361 9.25185L19.4958 1.0247C19.0053 0.522555 18.2097 0.522555 17.7191 1.0247C17.2285 1.52687 17.2285 2.34054 17.7191 2.84268L23.6148 8.87536H2.14182C1.44808 8.87536 0.885507 9.45069 0.885507 10.1608C0.885507 10.8705 1.44808 11.4463 2.14182 11.4463H23.6148L17.7194 17.4785C17.2287 17.9807 17.2287 18.7948 17.7194 19.2965C17.9647 19.5478 18.2862 19.673 18.6077 19.673C18.9292 19.673 19.2507 19.5478 19.4961 19.2965L27.5361 11.0698C28.0268 10.5677 28.0268 9.75351 27.5361 9.25185Z" fill="white"/>
</svg>
