<svg width="137" height="36" viewBox="0 0 137 36" fill="none" xmlns="http://www.w3.org/2000/svg">
<path d="M18.396 35.4867C15.5461 35.4582 13.2947 35.0022 11.1003 34.1757C10.8438 34.0902 10.6016 33.9905 10.3593 33.8907C9.14812 33.4347 8.92012 32.7793 9.39035 31.5966C9.96033 30.1574 10.4163 28.6897 10.915 27.222C11.1715 26.4953 11.371 25.7543 11.6418 25.0418C11.827 24.5289 12.226 24.2866 12.7675 24.2866C13.8077 24.3009 14.8336 24.3294 15.8738 24.3864C15.9308 24.3864 16.0733 24.6001 16.0448 24.6714C15.5318 26.538 14.9904 28.4047 14.4631 30.2714C14.3776 30.5421 14.4346 30.6704 14.7196 30.7701C17.0423 31.4968 19.3222 31.3828 21.5878 30.5564C24.4377 29.5304 26.7889 27.849 28.5273 25.3838C30.736 22.249 31.5339 18.7863 30.6362 15.053C29.6388 10.9064 27.2734 7.70031 23.426 5.73389C20.7329 4.3517 17.883 4.05246 14.9191 4.67943C11.2998 5.4489 8.46414 7.38682 6.42648 10.4647C5.22953 12.2744 4.5883 14.2835 4.27482 16.4067C4.14657 17.3329 3.79034 17.6464 2.84988 17.6464C2.06616 17.6464 1.29669 17.6606 0.512974 17.6321C0.398979 17.6321 0.199487 17.3899 0.199487 17.2474C0.0569924 15.5232 0.270734 13.8418 0.84071 12.2031C1.79542 9.46723 3.23461 7.04483 5.37202 5.06417C7.43819 3.1405 9.80359 1.70131 12.511 0.889091C13.4942 0.589854 14.5059 0.376112 15.5318 0.205119C16.2443 0.0768747 16.9853 0.0341268 17.712 0.00562802C19.2652 -0.0513696 20.7614 0.333364 22.2291 0.760846C24.566 1.43057 26.7034 2.52777 28.5986 4.08096C31.1207 6.14712 32.9731 8.69777 34.0846 11.7756C35.196 14.8678 35.3385 18.0311 34.7828 21.2372C33.8851 26.4668 30.8642 30.2144 26.4611 32.9788C24.737 34.0617 22.8845 34.7884 20.9039 35.1732C19.9492 35.3727 18.909 35.4154 18.396 35.4867Z" fill="#009540"/>
<path d="M9.4901 18.6865C12.0692 18.6865 14.6626 18.6865 17.2418 18.6865C17.655 18.6865 17.8118 18.7863 17.6693 19.2138C17.3558 20.2112 17.085 21.2229 16.7573 22.2062C16.5008 22.9756 15.8026 23.0896 15.1329 23.1751C14.3492 23.2606 13.5654 23.3319 12.7675 23.3604C11.257 23.4174 10.4306 24.3293 9.97458 25.6403C9.19087 27.8917 8.4214 30.1573 7.63768 32.4087C7.60918 32.4942 7.33844 32.5797 7.30995 32.5512C6.54048 31.6963 5.77101 30.8413 5.03004 29.9436C4.23207 28.9746 4.24632 27.8774 4.6738 26.766C5.04429 25.7828 5.47177 24.8138 5.87076 23.8306C6.113 23.2606 6.04175 23.1609 5.42902 23.1609C3.87584 23.1609 2.3084 23.1751 0.755218 23.1466C0.569976 23.1466 0.256489 22.9756 0.242239 22.8474C0.113995 21.7644 0 20.6815 0 19.5843C0 19.342 0.441731 18.9288 0.726719 18.8718C1.59593 18.715 2.4794 18.658 3.36286 18.6438C5.38628 18.658 7.43819 18.6865 9.4901 18.6865Z" fill="#1D1D1B"/>
<path d="M122.445 18.5299C122.445 17.0907 122.445 15.6515 122.445 14.198C122.445 13.8988 122.531 13.7706 122.844 13.7848C123.4 13.7991 123.956 13.7991 124.511 13.7848C124.796 13.7848 124.939 13.8703 124.896 14.1695C124.882 14.312 124.882 14.4545 124.896 14.5828C124.91 14.654 124.953 14.768 125.01 14.7965C125.067 14.825 125.167 14.768 125.224 14.711C126.193 13.7706 127.361 13.4143 128.686 13.5996C129.484 13.7136 130.126 14.1268 130.482 14.882C130.624 15.1812 130.753 15.2097 130.981 14.939C132.007 13.6993 133.802 13.2291 135.298 13.7991C135.868 14.0128 136.281 14.4403 136.467 15.0103C136.623 15.509 136.723 16.0362 136.737 16.5634C136.766 18.7008 136.737 20.8383 136.766 22.9757C136.766 23.2749 136.666 23.3462 136.395 23.3319C135.825 23.3177 135.241 23.3177 134.671 23.3319C134.386 23.3319 134.286 23.2464 134.286 22.9472C134.301 21.1375 134.286 19.3421 134.301 17.5324C134.301 16.8769 134.229 16.2215 133.574 15.908C132.89 15.5802 132.192 15.737 131.565 16.1502C131.052 16.4922 130.781 16.9054 130.795 17.5751C130.852 19.3706 130.81 21.166 130.824 22.9614C130.824 23.2607 130.724 23.3604 130.439 23.3462C129.869 23.3319 129.313 23.3319 128.743 23.3462C128.444 23.3462 128.359 23.2322 128.359 22.9472C128.373 21.1375 128.359 19.3421 128.373 17.5324C128.373 16.8627 128.287 16.2215 127.646 15.908C126.977 15.5945 126.307 15.7227 125.694 16.136C125.167 16.4779 124.853 16.8912 124.882 17.6036C124.939 19.3991 124.91 21.1945 124.882 22.9899C124.882 23.1039 124.682 23.3319 124.554 23.3319C123.97 23.3747 123.386 23.3747 122.787 23.3319C122.659 23.3319 122.459 23.1039 122.459 22.9899C122.445 21.4795 122.445 20.0118 122.445 18.5299Z" fill="#1D1D1B"/>
<path d="M52.908 23.6026C50.7421 23.4886 48.961 23.0468 47.4648 21.7501C47.2225 21.5364 47.1798 21.3797 47.3935 21.1232C47.7498 20.6672 48.0632 20.1827 48.391 19.7125C48.562 19.4702 48.6902 19.4132 48.9467 19.6412C50.2434 20.8239 51.7966 21.2942 53.5208 21.0662C53.9197 21.0092 54.3472 20.8097 54.675 20.5532C55.4587 19.9405 55.2449 18.9145 54.2475 18.5583C53.4638 18.2733 52.6373 18.0738 51.8251 17.8601C50.7564 17.5751 49.6877 17.3043 48.8042 16.6061C47.0088 15.1812 47.2083 12.203 49.2032 10.8636C50.6994 9.85189 52.3666 9.78064 54.0622 10.0514C55.2592 10.2366 56.3421 10.7069 57.3111 11.4621C57.5391 11.6473 57.5961 11.7898 57.3966 12.032C57.0261 12.4738 56.6841 12.9298 56.3564 13.4142C56.1569 13.6992 56.0144 13.6565 55.7722 13.4712C54.5182 12.5165 53.1218 12.146 51.5543 12.374C50.9416 12.4595 50.4429 12.9155 50.3716 13.4855C50.2861 14.084 50.6994 14.3832 51.1554 14.5969C51.4689 14.7394 51.8108 14.8392 52.1528 14.9389C53.3783 15.3237 54.6607 15.5802 55.8292 16.0931C57.7956 16.9481 58.2658 18.6865 57.6816 20.6814C57.2114 22.2489 55.9717 23.0041 54.4327 23.3176C53.8485 23.4601 53.2643 23.5456 52.908 23.6026Z" fill="#009540"/>
<path d="M115.506 13.5709C118.455 13.5709 120.55 15.637 120.521 18.5439C120.493 21.3938 118.569 23.5882 115.434 23.5597C112.556 23.5312 110.518 21.465 110.533 18.5012C110.518 15.5943 112.57 13.5566 115.506 13.5709ZM112.984 18.5297C113.083 18.9572 113.155 19.3989 113.297 19.8264C113.782 21.2513 115.605 21.8355 116.831 20.9663C117.8 20.2823 118.227 18.8859 117.871 17.5892C117.415 15.9648 115.705 15.2096 114.28 16.0503C113.368 16.5918 113.055 17.4895 112.984 18.5297Z" fill="#1D1D1B"/>
<path d="M95.8699 19.2991C94.8582 19.2991 93.8465 19.2991 92.8206 19.2991C92.3646 19.2991 92.2363 19.4701 92.4073 19.8976C92.7636 20.7953 93.419 21.3653 94.3452 21.5363C95.3997 21.7358 96.4114 21.5221 97.2949 20.8951C97.5229 20.7241 97.6653 20.7668 97.8221 20.9948C98.0216 21.3083 98.2353 21.6218 98.4491 21.921C98.6201 22.1633 98.6201 22.377 98.3351 22.5053C97.7081 22.7903 97.0954 23.1322 96.4542 23.3317C95.9127 23.5027 95.3284 23.574 94.7585 23.574C92.5213 23.574 90.6546 22.3343 89.9992 20.3394C88.959 17.1617 90.8684 13.6849 94.4022 13.5851C96.9386 13.5139 98.8195 15.0528 99.2185 17.5465C99.2898 17.974 99.304 18.3872 99.361 18.8147C99.4038 19.1709 99.2613 19.3134 98.8908 19.3134C97.9076 19.2849 96.8816 19.2991 95.8699 19.2991ZM94.673 17.689C95.2999 17.689 95.9412 17.6747 96.5681 17.689C96.9814 17.7032 97.0526 17.5037 96.9529 17.176C96.6821 16.1358 95.7559 15.4661 94.6017 15.4803C93.4903 15.4946 92.5926 16.207 92.3361 17.2615C92.2648 17.5892 92.3788 17.7032 92.6781 17.689C93.3478 17.689 94.0033 17.689 94.673 17.689Z" fill="#1D1D1B"/>
<path d="M79.9535 19.2851C78.9418 19.2851 77.93 19.2993 76.9183 19.2851C76.4481 19.2708 76.3626 19.4988 76.5051 19.8693C76.8756 20.824 77.5738 21.4082 78.5855 21.5507C79.6257 21.7075 80.5804 21.4652 81.4497 20.881C81.5494 20.824 81.8201 20.881 81.9056 20.9807C82.1194 21.223 82.2619 21.5365 82.4756 21.793C82.7748 22.1492 82.6894 22.3914 82.3189 22.6052C81.0079 23.3889 79.583 23.8021 78.101 23.5314C75.1514 23.0042 73.4557 20.767 73.9402 17.6179C74.211 15.908 75.1372 14.6255 76.7474 13.9558C79.1413 12.9441 82.1621 13.7705 83.0883 16.6347C83.3163 17.3472 83.3591 18.1166 83.4873 18.8576C83.5443 19.1711 83.4018 19.2993 83.0741 19.2993C82.0196 19.2851 80.9937 19.2993 79.9535 19.2851ZM78.728 17.6891C79.355 17.6891 79.982 17.6749 80.6089 17.6891C81.0222 17.7034 81.1219 17.5324 81.0364 17.1619C80.7799 16.136 79.8252 15.452 78.6853 15.4662C77.5738 15.4805 76.6476 16.2214 76.4339 17.2474C76.3626 17.5609 76.4766 17.6891 76.7901 17.6749C77.4171 17.6891 78.0725 17.6891 78.728 17.6891Z" fill="#1D1D1B"/>
<path d="M70.7341 18.0027C70.7341 19.6414 70.7341 21.2943 70.7341 22.933C70.7341 23.218 70.6486 23.3177 70.3636 23.3177C69.6939 23.3035 69.0099 23.332 68.3402 23.2892C68.212 23.2892 67.984 23.0612 67.984 22.933C67.9697 19.6699 67.9555 16.421 67.984 13.1579C67.984 12.6592 67.813 12.5024 67.3285 12.5167C66.4165 12.5452 65.4903 12.5167 64.5784 12.5309C64.2364 12.5309 64.1224 12.4027 64.1224 12.0749C64.1366 11.5619 64.0939 11.049 64.1366 10.536C64.1509 10.3935 64.3646 10.1513 64.4786 10.1513C67.7132 10.1228 70.9336 10.1228 74.154 10.1513C74.2822 10.1513 74.496 10.3792 74.5102 10.5217C74.553 11.0205 74.5102 11.5335 74.5245 12.0322C74.5387 12.3884 74.4105 12.5309 74.04 12.5309C73.1138 12.5167 72.1876 12.5452 71.2471 12.5167C70.8339 12.5024 70.6771 12.6449 70.6914 13.0581C70.7484 14.7111 70.7341 16.364 70.7341 18.0027Z" fill="#1D1D1B"/>
<path d="M105.759 13.5711C106.97 13.5426 108.125 13.9131 109.065 14.8535C109.322 15.11 109.364 15.2953 109.065 15.5518C108.709 15.851 108.381 16.193 108.025 16.5065C107.939 16.5777 107.683 16.592 107.64 16.535C106.842 15.5518 105.417 15.6088 104.733 15.9365C103.579 16.4922 103.009 17.6179 103.18 18.8861C103.408 20.5818 104.505 21.5365 106.158 21.3228C106.657 21.2515 107.099 20.8525 107.583 20.6246C107.726 20.5676 107.968 20.5391 108.068 20.6246C108.452 20.9238 108.809 21.2658 109.136 21.6363C109.222 21.736 109.236 22.0352 109.151 22.135C108.609 22.7762 107.911 23.2179 107.084 23.3747C106.486 23.4887 105.859 23.6312 105.26 23.5742C103.266 23.4032 101.342 22.2632 100.815 19.8693C100.373 17.8459 100.8 16.079 102.396 14.6826C103.237 13.9273 104.363 13.5711 105.759 13.5711Z" fill="#1D1D1B"/>
<path d="M42.6057 16.7487C42.6057 14.6825 42.6057 12.6021 42.5914 10.5359C42.5914 10.2082 42.7054 10.137 42.9904 10.137C43.6459 10.1512 44.3014 10.1227 44.9426 10.1655C45.0708 10.1797 45.3131 10.3935 45.3131 10.5217C45.3273 14.6825 45.3273 18.8291 45.3131 22.9899C45.3131 23.1039 45.0993 23.3034 44.9853 23.3034C44.3014 23.3319 43.6174 23.3034 42.9334 23.3177C42.6769 23.3177 42.5914 23.2464 42.5914 22.9757C42.6057 20.8953 42.6057 18.8291 42.6057 16.7487Z" fill="#009540"/>
<path d="M85.3682 16.7201C85.3682 14.6682 85.3682 12.6163 85.3682 10.5644C85.3682 10.2367 85.4679 10.1227 85.7956 10.1369C86.3371 10.1512 86.8929 10.1227 87.4343 10.1654C87.5768 10.1797 87.8048 10.3934 87.8048 10.5216C87.8191 14.6825 87.8191 18.8291 87.8048 22.9899C87.8048 23.1039 87.5911 23.3034 87.4771 23.3034C86.9071 23.3319 86.3229 23.3034 85.7529 23.3176C85.4679 23.3176 85.3824 23.2179 85.3824 22.9329C85.3682 20.8667 85.3682 18.8006 85.3682 16.7201Z" fill="#1D1D1B"/>
</svg>
