<svg width="57" height="109" viewBox="0 0 57 109" fill="none" xmlns="http://www.w3.org/2000/svg">
<path d="M8.689 81.1051C8.4913 81.1423 8.52751 81.3455 8.59992 81.752L8.63613 81.9552C8.70854 82.3616 9.01486 82.9341 9.44645 83.0629C27.3955 89.7674 36.3924 96.6858 47.2077 105.783C48.1795 106.65 49.4743 107.036 50.5714 107.46C51.2007 107.552 51.6685 107.884 52.334 108.179C52.5679 108.345 52.7294 108.104 52.9271 108.067C53.1248 108.03 53.2863 107.789 52.4397 106.478C42.2342 96.2169 28.1138 89.2122 14.4084 83.3896L9.31829 81.1968C9.12059 81.234 9.08439 81.0307 8.88669 81.0679C8.689 81.1051 8.88669 81.0679 8.689 81.1051ZM10.8297 67.8908L10.8659 68.0941C10.9745 68.7037 11.4785 69.239 11.8739 69.1646L13.6894 69.033C24.8524 68.6132 36.213 68.1561 47.3064 69.6395C47.5041 69.6023 47.8995 69.528 47.8995 69.528C48.061 69.2876 48.0248 69.0843 47.8271 69.1215C47.7909 68.9183 47.3593 68.7895 46.9277 68.6607C34.8624 66.3099 22.2432 66.5837 11.3142 67.1696C10.9188 67.244 10.7573 67.4844 10.8297 67.8908ZM54.8618 30.6235C42.5604 40.7087 27.3407 45.8823 14.1146 49.6307L7.89696 51.4305C7.10618 51.5793 7.17859 51.9857 7.2148 52.1889C7.28721 52.5953 7.71881 52.7242 8.2757 52.4094C11.2049 51.6483 14.1342 50.8872 17.4588 50.0517C29.5711 46.9329 43.4627 43.4794 52.6567 35.4489L53.1774 34.9309C56.8583 31.5081 56.8221 31.3049 56.7859 31.1017C56.7135 30.6952 56.4796 30.5292 56.048 30.4004C55.8503 30.4376 55.6164 30.2715 55.4187 30.3087C55.221 30.3459 55.0233 30.3831 54.8618 30.6235ZM53.5296 0.210416C34.8881 14.8488 24.9562 22.1779 7.51185 30.9204C6.00269 31.6244 4.52975 32.5316 3.0568 33.4388C2.30222 33.7907 1.58385 34.3459 0.829269 34.6979C0.470083 34.9755 0.308594 35.2159 0.381007 35.6224C0.381007 35.6224 0.417213 35.8256 0.45342 36.0288C0.759736 36.6012 1.22754 36.9333 1.78442 36.6185L2.89819 35.9889C18.8863 27.1003 48.2395 10.6568 54.6824 2.09379C55.0054 1.61297 54.8968 1.00333 54.6267 0.634096C54.3566 0.26486 54.1227 0.0988387 53.7273 0.173224L53.5296 0.210416Z" fill="url(#paint0_linear_228_439)"/>
<defs>
<linearGradient id="paint0_linear_228_439" x1="2.03706" y1="47.5128" x2="60.6358" y2="36.6295" gradientUnits="userSpaceOnUse">
<stop stop-color="#B08228"/>
<stop offset="0.0773688" stop-color="#C7AD7D"/>
<stop offset="0.122494" stop-color="#E7DEA4"/>
<stop offset="0.349427" stop-color="#AB8027"/>
<stop offset="0.637802" stop-color="#E7DEA4"/>
<stop offset="0.915052" stop-color="#AB8027"/>
<stop offset="1" stop-color="#D9C170"/>
</linearGradient>
</defs>
</svg>
