<svg width="63" height="63" viewBox="0 0 63 63" fill="none" xmlns="http://www.w3.org/2000/svg">
<path fill-rule="evenodd" clip-rule="evenodd" d="M31.5 0C14.103 0 0 14.103 0 31.5C0 48.897 14.103 63 31.5 63C48.897 63 63 48.897 63 31.5C62.9806 14.1111 48.8889 0.0194429 31.5 0ZM31.5 60.5764C19.7394 60.5764 9.13681 53.4919 4.63628 42.6265C0.135743 31.7611 2.62356 19.2545 10.9397 10.9386C19.2558 2.62267 31.7624 0.135118 42.6277 4.63589C53.493 9.13666 60.5773 19.7394 60.577 31.5C60.5579 47.5507 47.5507 60.5574 31.5 60.5758V60.5764ZM46.1569 20.0938L27.7899 41.3878L16.7252 32.2661C16.4799 32.0624 16.1621 31.9674 15.8452 32.0031C15.5283 32.0387 15.2396 32.2019 15.0457 32.4551C14.6355 32.9898 14.7188 33.7526 15.2347 34.1863L27.1858 44.0389C27.6793 44.447 28.4092 44.3827 28.8238 43.8946L47.943 21.7287C48.3814 21.2166 48.3375 20.4498 47.8435 19.9912C47.6093 19.7746 47.2968 19.663 46.9784 19.6823C46.66 19.7015 46.3633 19.85 46.1569 20.0932V20.0938Z" fill="white"/>
</svg>
