<svg xmlns="http://www.w3.org/2000/svg" xmlns:xlink="http://www.w3.org/1999/xlink" version="1.1" id="Layer_1" x="0px" y="0px" viewBox="0 0 512 512" xml:space="preserve" width="512px" height="512px">
    <g>
	    <path d="M42.667,85.333h384c23.531,0,42.667-19.135,42.667-42.667S450.198,0,426.667,0h-384C19.135,0,0,19.135,0,42.667     S19.135,85.333,42.667,85.333z M320,21.333h106.667c11.76,0,21.333,9.573,21.333,21.333S438.427,64,426.667,64H320V21.333z" fill="#FFFFFF"/>
        <path d="M373.583,174.604c-9.792-15.823-26.75-25.271-45.365-25.271H141.115c-18.615,0-35.573,9.448-45.365,25.271     c0,0-64.664,107.4-87.875,142.135C7.389,317.465,0,330.371,0,341.333v85.333c0,23.531,19.135,42.667,42.667,42.667h384     c23.531,0,42.667-19.135,42.667-42.667v-85.333c0-9.372-4.621-18.423-7.49-24.021     C442.716,279.978,373.583,174.604,373.583,174.604z M132.042,197.052c1.958-3.167,5.354-5.052,9.073-5.052h187.104     c3.781,0,7.094,1.844,9.083,5.052c0,0,36.508,59.055,62.865,101.615H69.223C95.641,255.919,132.042,197.046,132.042,197.052z      M85.333,416c0,5.896-4.771,10.667-10.667,10.667S64,421.896,64,416v-64c0-5.896,4.771-10.667,10.667-10.667     S85.333,346.104,85.333,352V416z M128,416c0,5.896-4.771,10.667-10.667,10.667c-5.896,0-10.667-4.771-10.667-10.667v-64     c0-5.896,4.771-10.667,10.667-10.667c5.896,0,10.667,4.771,10.667,10.667V416z M170.667,416c0,5.896-4.771,10.667-10.667,10.667     c-5.896,0-10.667-4.771-10.667-10.667v-64c0-5.896,4.771-10.667,10.667-10.667c5.896,0,10.667,4.771,10.667,10.667V416z      M320,405.333c-11.76,0-21.333-9.573-21.333-21.333c0-11.76,9.573-21.333,21.333-21.333c11.76,0,21.333,9.573,21.333,21.333     C341.333,395.76,331.76,405.333,320,405.333z M384,405.333c-11.76,0-21.333-9.573-21.333-21.333     c0-11.76,9.573-21.333,21.333-21.333c11.76,0,21.333,9.573,21.333,21.333C405.333,395.76,395.76,405.333,384,405.333z" fill="#FFFFFF"/>
	</g>
</svg>