<svg width="139" height="97" viewBox="0 0 139 97" fill="none" xmlns="http://www.w3.org/2000/svg">
<path d="M3.81916 73.479H1.45729C1.19346 73.479 0.9422 73.6927 0.9422 73.9693V76.1064C0.9422 76.3704 1.1809 76.5967 1.45729 76.5967H3.81916C4.08299 76.5967 4.30913 76.383 4.30913 76.1064V73.9693C4.30913 73.6927 4.08299 73.479 3.81916 73.479ZM3.74379 78.4195H1.50754C1.24372 78.4195 1.01758 78.6332 1.01758 78.9098V91.632C1.01758 91.896 1.23115 92.1474 1.50754 92.1474H3.74379C4.00761 92.1474 4.23375 91.9086 4.23375 91.632V78.8972C4.23375 78.6332 4.00761 78.4195 3.74379 78.4195ZM14.0079 78.2435C12.3998 78.2435 11.4827 78.5075 10.0756 79.4127V78.8972C10.0756 78.6332 9.86205 78.407 9.58566 78.407H7.46248C7.19866 78.407 6.97252 78.6207 6.97252 78.8972V91.6194C6.97252 91.8834 7.18609 92.1348 7.46248 92.1348H9.69873C9.96255 92.1348 10.1887 91.896 10.1887 91.6194V81.8389C11.2063 81.2984 12.1109 80.9589 12.94 80.9589C14.8119 80.9589 15.0004 81.5624 15.0004 83.6869V91.6194C15.0004 91.8834 15.214 92.1348 15.4903 92.1348H17.7266C17.9904 92.1348 18.2166 91.896 18.2166 91.6194V83.6869C18.204 80.6069 17.5005 78.2435 14.0079 78.2435ZM27.5384 89.8217H26.257C25.3776 89.8217 25.3147 89.6709 25.3147 88.464V80.8332H27.5007C27.7646 80.8332 27.9907 80.6195 27.9907 80.3429V78.9098C27.9907 78.6458 27.7771 78.4195 27.5007 78.4195H25.3147V75.9178C25.3147 75.679 25.1389 75.5533 24.9253 75.5533H24.8248L22.5634 75.943C22.2996 75.9933 22.0734 76.1567 22.0734 76.4333V78.4321H19.7869C19.5231 78.4321 19.297 78.6458 19.297 78.9224V80.0161C19.297 80.2801 19.5106 80.4561 19.7869 80.5064L22.0734 80.8458V88.4766C22.0734 91.7326 23.1916 92.3485 25.9429 92.3485C26.4831 92.3485 27.0108 92.2731 27.6012 92.1726C27.9153 92.1223 28.0661 91.984 28.0661 91.7326V90.1989C28.0535 89.9474 27.8525 89.8217 27.5384 89.8217ZM35.1768 78.2435C31.4581 78.2435 29.3475 80.6321 29.3475 84.4161V86.2137C29.3475 91.0034 32.8024 92.3234 35.2271 92.3234C37.4131 92.3234 38.3679 92.1977 39.9383 91.9086C40.378 91.8331 40.4534 91.6697 40.4534 91.28V89.6709C40.4534 89.432 40.2649 89.3063 40.0136 89.3063H39.9383C38.9207 89.4069 37.2372 89.5451 35.4658 89.5451C33.129 89.5451 32.5511 87.8732 32.5511 86.4526V86.3772H40.4785C40.8177 86.3772 40.9684 86.1635 40.9684 85.7738V84.4161C40.9559 80.7955 38.9207 78.2435 35.1768 78.2435ZM37.7271 84.1018H32.5763V84.0012C32.5763 82.0778 33.6692 81.0092 35.1768 81.0092C36.6844 81.0092 37.7271 82.1029 37.7271 84.0012V84.1018ZM49.7752 78.2435C48.8079 78.2435 47.4887 78.4824 46.2952 79.4127V78.8972C46.2952 78.6332 46.0817 78.407 45.8053 78.407H43.6947C43.4308 78.407 43.2047 78.6207 43.2047 78.8972V91.6194C43.2047 91.8834 43.4183 92.1348 43.6947 92.1348H45.9309C46.1947 92.1348 46.4209 91.896 46.4209 91.6194V81.8389C47.4385 81.2984 48.4561 80.9589 49.7752 80.9589C50.0391 80.9589 50.2652 80.7452 50.2652 80.4687V78.7212C50.2652 78.4698 50.0516 78.2435 49.7752 78.2435ZM65.2656 78.2435C63.5821 78.2435 62.4892 78.6584 61.258 79.3372C60.7052 78.6584 59.8006 78.2435 58.4187 78.2435C56.9865 78.2435 55.9689 78.759 54.9387 79.4127V78.8972C54.9387 78.6332 54.7251 78.407 54.4487 78.407H52.3381C52.0743 78.407 51.8481 78.6207 51.8481 78.8972V91.6194C51.8481 91.8834 52.0617 92.1348 52.3381 92.1348H54.5744C54.8382 92.1348 55.0643 91.896 55.0643 91.6194V81.7886C56.0568 81.2481 56.7855 80.9841 57.3006 80.9841C58.6574 80.9841 58.984 81.4744 58.984 83.3475V91.6194C58.984 91.8834 59.1976 92.1348 59.474 92.1348H61.6851C61.9489 92.1348 62.1751 91.896 62.1751 91.6194V83.3475C62.1751 82.7441 62.1499 82.1281 62.0746 81.6001C62.954 81.1349 63.8711 80.9967 64.3359 80.9967C65.6928 80.9967 66.0822 81.4869 66.0822 83.3601V91.632C66.0822 91.896 66.2958 92.1474 66.5722 92.1474H68.8084C69.0723 92.1474 69.2984 91.9086 69.2984 91.632V83.3475C69.2984 80.5064 68.5697 78.2435 65.2656 78.2435ZM77.3639 78.2435C73.5447 78.2435 71.5598 80.8207 71.5598 84.3029V86.2766C71.5598 89.7589 73.5573 92.336 77.3639 92.336C81.1706 92.336 83.1681 89.7589 83.1681 86.2766V84.3029C83.1681 80.8207 81.1831 78.2435 77.3639 78.2435ZM79.9645 86.264C79.9645 88.2629 79.06 89.5451 77.3639 89.5451C75.6679 89.5451 74.7634 88.2503 74.7634 86.264V84.2903C74.7634 82.2915 75.6679 81.0092 77.3639 81.0092C79.06 81.0092 79.9645 82.3041 79.9645 84.2903V86.264ZM90.9698 78.2435C90.3919 78.2435 89.5376 78.2938 88.6331 78.4195V74.1201C88.6331 73.8561 88.4195 73.6299 88.1431 73.6299H85.9069C85.6431 73.6299 85.4169 73.8436 85.4169 74.1201V91.0411C85.4169 91.4057 85.5174 91.5566 86.0702 91.6948C87.5778 92.0846 89.3995 92.3234 90.9573 92.3234C94.877 92.3234 96.7615 90.0103 96.7615 86.2137V84.3532C96.7866 80.5567 94.8895 78.2435 90.9698 78.2435ZM93.5704 86.2263C93.5704 88.2252 93.0553 89.7086 90.9698 89.7086C90.0904 89.7086 89.0979 89.6332 88.6331 89.5326V81.0469C89.3115 80.9464 90.3794 80.8835 90.9698 80.8835C93.0553 80.8835 93.5704 82.3669 93.5704 84.3658V86.2263ZM101.837 73.479H99.4751C99.2113 73.479 98.96 73.6927 98.96 73.9693V76.1064C98.96 76.3704 99.1987 76.5967 99.4751 76.5967H101.837C102.101 76.5967 102.327 76.383 102.327 76.1064V73.9693C102.327 73.6927 102.101 73.479 101.837 73.479ZM101.762 78.4195H99.5254C99.2615 78.4195 99.0354 78.6332 99.0354 78.9098V91.632C99.0354 91.896 99.249 92.1474 99.5254 92.1474H101.762C102.025 92.1474 102.252 91.9086 102.252 91.632V78.8972C102.252 78.6332 102.038 78.4195 101.762 78.4195ZM107.867 73.6299H105.606C105.342 73.6299 105.116 73.8436 105.116 74.1201V91.632C105.116 91.896 105.33 92.1474 105.606 92.1474H107.867C108.131 92.1474 108.332 91.9086 108.332 91.632V74.1076C108.332 73.8436 108.131 73.6299 107.867 73.6299ZM113.986 73.479H111.624C111.36 73.479 111.109 73.6927 111.109 73.9693V76.1064C111.109 76.3704 111.347 76.5967 111.624 76.5967H113.986C114.249 76.5967 114.476 76.383 114.476 76.1064V73.9693C114.476 73.6927 114.262 73.479 113.986 73.479ZM113.923 78.4195H111.687C111.423 78.4195 111.197 78.6332 111.197 78.9098V91.632C111.197 91.896 111.41 92.1474 111.687 92.1474H113.923C114.187 92.1474 114.413 91.9086 114.413 91.632V78.8972C114.4 78.6332 114.187 78.4195 113.923 78.4195ZM124.3 89.8217H123.006C122.126 89.8217 122.064 89.6709 122.064 88.464V80.8332H124.25C124.514 80.8332 124.74 80.6195 124.74 80.3429V78.9098C124.74 78.6458 124.526 78.4195 124.25 78.4195H122.064V75.9178C122.064 75.679 121.9 75.5533 121.674 75.5533H121.574L119.312 75.943C119.049 75.9933 118.822 76.1567 118.822 76.4333V78.4321H116.536C116.272 78.4321 116.046 78.6458 116.046 78.9224V80.0161C116.046 80.2801 116.259 80.4561 116.536 80.5064L118.822 80.8458V88.4766C118.822 91.7326 119.941 92.3485 122.692 92.3485C123.232 92.3485 123.76 92.2731 124.35 92.1726C124.664 92.1223 124.815 91.984 124.815 91.7326V90.1989C124.802 89.9474 124.614 89.8217 124.3 89.8217ZM137.491 78.4195H135.016C134.778 78.4195 134.577 78.6081 134.526 78.8344L131.901 89.2937C131.901 89.2937 131.901 89.2937 131.825 89.2937H131.674C131.524 89.2937 131.436 89.168 131.335 88.7532L128.885 78.8595C128.835 78.6458 128.647 78.4195 128.421 78.4195H125.971C125.657 78.4195 125.506 78.5704 125.506 78.8092C125.506 78.8595 125.506 78.9098 125.531 78.9727L128.71 90.1109C129.25 91.9588 130.117 92.1348 130.82 92.1348H131.185L130.996 92.864C130.657 94.1337 130.117 94.4228 129.074 94.4228C128.396 94.4228 127.014 94.2971 126.323 94.272C126.297 94.272 126.297 94.272 126.272 94.272C126.009 94.272 125.782 94.4354 125.782 94.712V96.2708C125.782 96.5097 126.021 96.6102 126.297 96.6857C126.85 96.8617 128.069 96.9999 128.873 96.9999C132.177 96.9999 133.082 95.8308 133.835 93.1783L137.893 78.9727C137.918 78.9224 137.918 78.8721 137.918 78.8218C137.931 78.6081 137.743 78.4195 137.491 78.4195Z" fill="white"/>
<path d="M57.9413 43.9619L13.4175 43.723V33.8671L52.2376 33.6785L45.8053 22.0752L13.4049 21.8741V12.0056L40.1142 11.7919L33.6693 0.150856L0 0V55.716L64.3611 55.5652L57.9413 43.9619ZM86.221 0L71.6854 27.77L57.0745 0H41.6092L71.6101 55.6406V55.7286L71.698 55.6406L101.686 0H86.221ZM109.099 0.980562L78.7711 55.716H93.9599L98.0053 47.9093H119.061L123.106 55.716H138.572L109.099 0.980562ZM103.407 37.4625L108.571 27.6946L113.646 37.4625H103.407Z" fill="#0081C3"/>
</svg>
