<svg width="210" height="30" viewBox="0 0 210 30" fill="none" xmlns="http://www.w3.org/2000/svg">
<path d="M30.8221 23.4109L7.13747 23.2837V18.0351L27.788 17.9347L24.3663 11.7556L7.13079 11.6485V6.3933L21.3389 6.2795L17.9105 0.0803347L0 0V29.6703L34.2371 29.59L30.8221 23.4109ZM45.8656 0L38.1334 14.7883L30.361 0H22.1342L38.0933 29.6301V29.677L38.14 29.6301L54.0924 0H45.8656ZM58.0354 0.522176L41.9026 29.6703H49.9824L52.1343 25.513H63.335L65.487 29.6703H73.7138L58.0354 0.522176ZM55.008 19.9498L57.7547 14.7481L60.4547 19.9498H55.008Z" fill="#0081C3"/>
<path opacity="0.8" d="M95.3049 4.7865H93.298C93.0738 4.7865 92.8603 4.9681 92.8603 5.20312V7.01913C92.8603 7.24346 93.0631 7.43574 93.298 7.43574H95.3049C95.5291 7.43574 95.7213 7.25414 95.7213 7.01913V5.20312C95.7213 4.9681 95.5291 4.7865 95.3049 4.7865ZM95.2409 8.98469H93.3407C93.1165 8.98469 92.9243 9.16629 92.9243 9.4013V20.2119C92.9243 20.4362 93.1058 20.6499 93.3407 20.6499H95.2409C95.4651 20.6499 95.6572 20.4469 95.6572 20.2119V9.39062C95.6572 9.16629 95.4651 8.98469 95.2409 8.98469ZM103.963 8.83514C102.596 8.83514 101.817 9.05946 100.621 9.8286V9.39062C100.621 9.16629 100.44 8.97401 100.205 8.97401H98.4008C98.1767 8.97401 97.9845 9.1556 97.9845 9.39062V20.2012C97.9845 20.4255 98.166 20.6392 98.4008 20.6392H100.301C100.525 20.6392 100.717 20.4362 100.717 20.2012V11.8903C101.582 11.431 102.351 11.1425 103.055 11.1425C104.646 11.1425 104.806 11.6553 104.806 13.4606V20.2012C104.806 20.4255 104.988 20.6392 105.222 20.6392H107.123C107.347 20.6392 107.539 20.4362 107.539 20.2012V13.4606C107.528 10.8434 106.931 8.83514 103.963 8.83514ZM115.46 18.6736H114.371C113.624 18.6736 113.571 18.5454 113.571 17.5199V11.0357H115.428C115.652 11.0357 115.845 10.8541 115.845 10.6191V9.4013C115.845 9.17697 115.663 8.98469 115.428 8.98469H113.571V6.85889C113.571 6.65592 113.421 6.5491 113.24 6.5491H113.154L111.233 6.88025C111.009 6.92298 110.816 7.06185 110.816 7.29687V8.99537H108.873C108.649 8.99537 108.457 9.17697 108.457 9.41198V10.3414C108.457 10.5657 108.639 10.7152 108.873 10.758L110.816 11.0464V17.5306C110.816 20.2974 111.767 20.8208 114.104 20.8208C114.564 20.8208 115.012 20.7567 115.514 20.6712C115.781 20.6285 115.909 20.511 115.909 20.2974V18.9941C115.898 18.7805 115.727 18.6736 115.46 18.6736ZM121.951 8.83514C118.791 8.83514 116.998 10.8648 116.998 14.0802V15.6078C116.998 19.6778 119.933 20.7994 121.994 20.7994C123.851 20.7994 124.663 20.6926 125.997 20.4469C126.371 20.3828 126.435 20.2439 126.435 19.9128V18.5454C126.435 18.3425 126.275 18.2357 126.061 18.2357H125.997C125.132 18.3211 123.702 18.4386 122.196 18.4386C120.211 18.4386 119.72 17.0179 119.72 15.8107V15.7467H126.456C126.744 15.7467 126.872 15.5651 126.872 15.2339V14.0802C126.862 11.0037 125.132 8.83514 121.951 8.83514ZM124.118 13.8131H119.741V13.7277C119.741 12.0933 120.67 11.1853 121.951 11.1853C123.232 11.1853 124.118 12.1146 124.118 13.7277V13.8131ZM134.356 8.83514C133.534 8.83514 132.413 9.0381 131.399 9.8286V9.39062C131.399 9.16629 131.217 8.97401 130.982 8.97401H129.189C128.965 8.97401 128.773 9.1556 128.773 9.39062V20.2012C128.773 20.4255 128.954 20.6392 129.189 20.6392H131.089C131.313 20.6392 131.506 20.4362 131.506 20.2012V11.8903C132.37 11.431 133.235 11.1425 134.356 11.1425C134.58 11.1425 134.772 10.9609 134.772 10.7259V9.24107C134.772 9.02742 134.591 8.83514 134.356 8.83514ZM147.519 8.83514C146.088 8.83514 145.159 9.18765 144.113 9.7645C143.644 9.18765 142.875 8.83514 141.701 8.83514C140.484 8.83514 139.619 9.27311 138.743 9.8286V9.39062C138.743 9.16629 138.562 8.97401 138.327 8.97401H136.534C136.309 8.97401 136.117 9.1556 136.117 9.39062V20.2012C136.117 20.4255 136.299 20.6392 136.534 20.6392H138.434C138.658 20.6392 138.85 20.4362 138.85 20.2012V11.8476C139.694 11.3882 140.313 11.1639 140.75 11.1639C141.903 11.1639 142.181 11.5805 142.181 13.1722V20.2012C142.181 20.4255 142.362 20.6392 142.597 20.6392H144.476C144.7 20.6392 144.893 20.4362 144.893 20.2012V13.1722C144.893 12.6594 144.871 12.136 144.807 11.6873C145.554 11.2921 146.334 11.1746 146.729 11.1746C147.882 11.1746 148.213 11.5912 148.213 13.1829V20.2119C148.213 20.4362 148.394 20.6499 148.629 20.6499H150.529C150.753 20.6499 150.946 20.4469 150.946 20.2119V13.1722C150.946 10.758 150.326 8.83514 147.519 8.83514ZM157.799 8.83514C154.554 8.83514 152.867 11.025 152.867 13.9841V15.6612C152.867 18.6202 154.565 20.8101 157.799 20.8101C161.034 20.8101 162.731 18.6202 162.731 15.6612V13.9841C162.731 11.025 161.045 8.83514 157.799 8.83514ZM160.009 15.6505C160.009 17.349 159.24 18.4386 157.799 18.4386C156.358 18.4386 155.589 17.3383 155.589 15.6505V13.9734C155.589 12.2749 156.358 11.1853 157.799 11.1853C159.24 11.1853 160.009 12.2856 160.009 13.9734V15.6505ZM169.361 8.83514C168.87 8.83514 168.144 8.87786 167.375 8.98469V5.3313C167.375 5.10697 167.194 4.91469 166.959 4.91469H165.059C164.834 4.91469 164.642 5.09629 164.642 5.3313V19.7098C164.642 20.0196 164.728 20.1478 165.197 20.2653C166.478 20.5965 168.026 20.7994 169.35 20.7994C172.681 20.7994 174.282 18.8339 174.282 15.6078V14.0268C174.304 10.8007 172.692 8.83514 169.361 8.83514ZM171.571 15.6185C171.571 17.317 171.133 18.5775 169.361 18.5775C168.613 18.5775 167.77 18.5134 167.375 18.4279V11.2173C167.952 11.1319 168.859 11.0784 169.361 11.0784C171.133 11.0784 171.571 12.339 171.571 14.0375V15.6185ZM178.595 4.7865H176.588C176.364 4.7865 176.15 4.9681 176.15 5.20312V7.01913C176.15 7.24346 176.353 7.43574 176.588 7.43574H178.595C178.819 7.43574 179.011 7.25414 179.011 7.01913V5.20312C179.011 4.9681 178.819 4.7865 178.595 4.7865ZM178.531 8.98469H176.631C176.407 8.98469 176.214 9.16629 176.214 9.4013V20.2119C176.214 20.4362 176.396 20.6499 176.631 20.6499H178.531C178.755 20.6499 178.947 20.4469 178.947 20.2119V9.39062C178.947 9.16629 178.766 8.98469 178.531 8.98469ZM183.719 4.91469H181.798C181.574 4.91469 181.381 5.09629 181.381 5.3313V20.2119C181.381 20.4362 181.563 20.6499 181.798 20.6499H183.719C183.943 20.6499 184.114 20.4469 184.114 20.2119V5.32062C184.114 5.09629 183.943 4.91469 183.719 4.91469ZM188.918 4.7865H186.911C186.687 4.7865 186.474 4.9681 186.474 5.20312V7.01913C186.474 7.24346 186.676 7.43574 186.911 7.43574H188.918C189.142 7.43574 189.335 7.25414 189.335 7.01913V5.20312C189.335 4.9681 189.153 4.7865 188.918 4.7865ZM188.865 8.98469H186.965C186.74 8.98469 186.548 9.16629 186.548 9.4013V20.2119C186.548 20.4362 186.73 20.6499 186.965 20.6499H188.865C189.089 20.6499 189.281 20.4469 189.281 20.2119V9.39062C189.271 9.16629 189.089 8.98469 188.865 8.98469ZM197.683 18.6736H196.583C195.836 18.6736 195.783 18.5454 195.783 17.5199V11.0357H197.64C197.864 11.0357 198.056 10.8541 198.056 10.6191V9.4013C198.056 9.17697 197.875 8.98469 197.64 8.98469H195.783V6.85889C195.783 6.65592 195.644 6.5491 195.452 6.5491H195.366L193.445 6.88025C193.22 6.92298 193.028 7.06185 193.028 7.29687V8.99537H191.085C190.861 8.99537 190.669 9.17697 190.669 9.41198V10.3414C190.669 10.5657 190.851 10.7152 191.085 10.758L193.028 11.0464V17.5306C193.028 20.2974 193.978 20.8208 196.316 20.8208C196.775 20.8208 197.224 20.7567 197.726 20.6712C197.992 20.6285 198.121 20.511 198.121 20.2974V18.9941C198.11 18.7805 197.95 18.6736 197.683 18.6736ZM208.892 8.98469H206.789C206.586 8.98469 206.415 9.14492 206.373 9.3372L204.142 18.225C204.142 18.225 204.142 18.225 204.077 18.225H203.949C203.821 18.225 203.747 18.1181 203.661 17.7656L201.579 9.35857C201.537 9.17697 201.377 8.98469 201.184 8.98469H199.103C198.836 8.98469 198.708 9.11288 198.708 9.31584C198.708 9.35857 198.708 9.4013 198.729 9.45471L201.43 18.9193C201.889 20.4896 202.626 20.6392 203.223 20.6392H203.533L203.373 21.2588C203.085 22.3377 202.626 22.5834 201.74 22.5834C201.163 22.5834 199.989 22.4766 199.402 22.4552C199.38 22.4552 199.38 22.4552 199.359 22.4552C199.135 22.4552 198.943 22.5941 198.943 22.8291V24.1537C198.943 24.3567 199.145 24.4421 199.38 24.5062C199.85 24.6558 200.885 24.7733 201.569 24.7733C204.376 24.7733 205.145 23.7798 205.786 21.5258L209.234 9.45471C209.255 9.41198 209.255 9.36925 209.255 9.32652C209.266 9.14492 209.106 8.98469 208.892 8.98469Z" fill="#333333"/>
</svg>
